<mxfile host="app.diagrams.net" modified="2023-08-27T10:24:34.264Z" agent="Mozilla/5.0 (Windows NT 10.0; Win64; x64) AppleWebKit/537.36 (KHTML, like Gecko) Chrome/114.0.0.0 YaBrowser/23.7.3.823 Yowser/2.5 Safari/537.36" etag="r_vYKcbyA3GN_eFNNUzS" version="21.6.9" type="device">
  <diagram id="C5RBs43oDa-KdzZeNtuy" name="Page-1">
    <mxGraphModel dx="2006" dy="648" grid="1" gridSize="10" guides="1" tooltips="1" connect="1" arrows="1" fold="1" page="1" pageScale="1" pageWidth="827" pageHeight="1169" math="0" shadow="0">
      <root>
        <mxCell id="WIyWlLk6GJQsqaUBKTNV-0" />
        <mxCell id="WIyWlLk6GJQsqaUBKTNV-1" parent="WIyWlLk6GJQsqaUBKTNV-0" />
        <mxCell id="zkfFHV4jXpPFQw0GAbJ--0" value="city" style="swimlane;align=center;verticalAlign=top;childLayout=stackLayout;horizontal=1;startSize=26;horizontalStack=0;resizeParent=1;resizeLast=0;collapsible=1;marginBottom=0;rounded=0;shadow=0;strokeWidth=1;fontFamily=Helvetica;swimlaneFillColor=default;" parent="WIyWlLk6GJQsqaUBKTNV-1" vertex="1">
          <mxGeometry x="240" y="140" width="160" height="130" as="geometry">
            <mxRectangle x="230" y="140" width="160" height="26" as="alternateBounds" />
          </mxGeometry>
        </mxCell>
        <mxCell id="zkfFHV4jXpPFQw0GAbJ--1" value="PK id" style="text;align=center;verticalAlign=top;spacingLeft=4;spacingRight=4;overflow=hidden;rotatable=0;points=[[0,0.5],[1,0.5]];portConstraint=eastwest;fontFamily=Helvetica;" parent="zkfFHV4jXpPFQw0GAbJ--0" vertex="1">
          <mxGeometry y="26" width="160" height="26" as="geometry" />
        </mxCell>
        <mxCell id="zkfFHV4jXpPFQw0GAbJ--3" value="name&#xa;" style="text;align=center;verticalAlign=top;spacingLeft=4;spacingRight=4;overflow=hidden;rotatable=0;points=[[0,0.5],[1,0.5]];portConstraint=eastwest;rounded=0;shadow=0;fontFamily=Helvetica;" parent="zkfFHV4jXpPFQw0GAbJ--0" vertex="1">
          <mxGeometry y="52" width="160" height="26" as="geometry" />
        </mxCell>
        <mxCell id="g6MJSV2zIn0to4Q6sfaw-13" value="crt_date" style="text;align=center;verticalAlign=top;spacingLeft=4;spacingRight=4;overflow=hidden;rotatable=0;points=[[0,0.5],[1,0.5]];portConstraint=eastwest;rounded=0;shadow=0;fontFamily=Helvetica;" parent="zkfFHV4jXpPFQw0GAbJ--0" vertex="1">
          <mxGeometry y="78" width="160" height="26" as="geometry" />
        </mxCell>
        <mxCell id="zkfFHV4jXpPFQw0GAbJ--2" value="FK region_id" style="text;align=center;verticalAlign=top;spacingLeft=4;spacingRight=4;overflow=hidden;rotatable=0;points=[[0,0.5],[1,0.5]];portConstraint=eastwest;rounded=0;shadow=0;fontFamily=Helvetica;" parent="zkfFHV4jXpPFQw0GAbJ--0" vertex="1">
          <mxGeometry y="104" width="160" height="26" as="geometry" />
        </mxCell>
        <mxCell id="zkfFHV4jXpPFQw0GAbJ--17" value="spots" style="swimlane;align=center;verticalAlign=top;childLayout=stackLayout;horizontal=1;startSize=26;horizontalStack=0;resizeParent=1;resizeLast=0;collapsible=1;marginBottom=0;rounded=0;shadow=0;strokeWidth=1;fontFamily=Helvetica;swimlaneFillColor=default;" parent="WIyWlLk6GJQsqaUBKTNV-1" vertex="1">
          <mxGeometry x="570" y="70" width="160" height="110" as="geometry">
            <mxRectangle x="550" y="140" width="160" height="26" as="alternateBounds" />
          </mxGeometry>
        </mxCell>
        <mxCell id="zkfFHV4jXpPFQw0GAbJ--18" value="PK id" style="text;align=center;verticalAlign=top;spacingLeft=4;spacingRight=4;overflow=hidden;rotatable=0;points=[[0,0.5],[1,0.5]];portConstraint=eastwest;fontFamily=Helvetica;" parent="zkfFHV4jXpPFQw0GAbJ--17" vertex="1">
          <mxGeometry y="26" width="160" height="26" as="geometry" />
        </mxCell>
        <mxCell id="g6MJSV2zIn0to4Q6sfaw-32" value="FK city_id" style="text;align=center;verticalAlign=top;spacingLeft=4;spacingRight=4;overflow=hidden;rotatable=0;points=[[0,0.5],[1,0.5]];portConstraint=eastwest;fontFamily=Helvetica;" parent="zkfFHV4jXpPFQw0GAbJ--17" vertex="1">
          <mxGeometry y="52" width="160" height="26" as="geometry" />
        </mxCell>
        <mxCell id="zkfFHV4jXpPFQw0GAbJ--26" value="" style="endArrow=blockThin;shadow=0;strokeWidth=1;rounded=0;endFill=1;edgeStyle=elbowEdgeStyle;elbow=vertical;startArrow=blockThin;startFill=1;align=center;fontFamily=Helvetica;" parent="WIyWlLk6GJQsqaUBKTNV-1" source="zkfFHV4jXpPFQw0GAbJ--0" target="zkfFHV4jXpPFQw0GAbJ--17" edge="1">
          <mxGeometry x="0.5" y="41" relative="1" as="geometry">
            <mxPoint x="380" y="192" as="sourcePoint" />
            <mxPoint x="540" y="192" as="targetPoint" />
            <mxPoint x="-40" y="32" as="offset" />
          </mxGeometry>
        </mxCell>
        <mxCell id="g6MJSV2zIn0to4Q6sfaw-18" value="1" style="edgeLabel;align=center;verticalAlign=middle;resizable=0;points=[];fontFamily=Helvetica;fontSize=15;" parent="zkfFHV4jXpPFQw0GAbJ--26" vertex="1" connectable="0">
          <mxGeometry x="-0.763" y="1" relative="1" as="geometry">
            <mxPoint y="1" as="offset" />
          </mxGeometry>
        </mxCell>
        <mxCell id="g6MJSV2zIn0to4Q6sfaw-19" value="*" style="edgeLabel;align=center;verticalAlign=middle;resizable=0;points=[];fontFamily=Helvetica;fontSize=23;" parent="zkfFHV4jXpPFQw0GAbJ--26" vertex="1" connectable="0">
          <mxGeometry x="0.737" y="1" relative="1" as="geometry">
            <mxPoint x="-2" y="4" as="offset" />
          </mxGeometry>
        </mxCell>
        <mxCell id="g6MJSV2zIn0to4Q6sfaw-0" value="region" style="swimlane;align=center;verticalAlign=top;childLayout=stackLayout;horizontal=1;startSize=26;horizontalStack=0;resizeParent=1;resizeLast=0;collapsible=1;marginBottom=0;rounded=0;shadow=0;strokeWidth=1;fontFamily=Helvetica;fillStyle=solid;swimlaneLine=1;swimlaneFillColor=default;" parent="WIyWlLk6GJQsqaUBKTNV-1" vertex="1">
          <mxGeometry x="210" y="390" width="160" height="130" as="geometry">
            <mxRectangle x="230" y="140" width="160" height="26" as="alternateBounds" />
          </mxGeometry>
        </mxCell>
        <mxCell id="g6MJSV2zIn0to4Q6sfaw-1" value="PK id" style="text;align=center;verticalAlign=top;spacingLeft=4;spacingRight=4;overflow=hidden;rotatable=0;points=[[0,0.5],[1,0.5]];portConstraint=eastwest;fontFamily=Helvetica;" parent="g6MJSV2zIn0to4Q6sfaw-0" vertex="1">
          <mxGeometry y="26" width="160" height="26" as="geometry" />
        </mxCell>
        <mxCell id="g6MJSV2zIn0to4Q6sfaw-3" value="name&#xa;" style="text;align=center;verticalAlign=top;spacingLeft=4;spacingRight=4;overflow=hidden;rotatable=0;points=[[0,0.5],[1,0.5]];portConstraint=eastwest;rounded=0;shadow=0;fontFamily=Helvetica;" parent="g6MJSV2zIn0to4Q6sfaw-0" vertex="1">
          <mxGeometry y="52" width="160" height="26" as="geometry" />
        </mxCell>
        <mxCell id="g6MJSV2zIn0to4Q6sfaw-12" value="crt_date" style="text;align=center;verticalAlign=top;spacingLeft=4;spacingRight=4;overflow=hidden;rotatable=0;points=[[0,0.5],[1,0.5]];portConstraint=eastwest;rounded=0;shadow=0;fontFamily=Helvetica;" parent="g6MJSV2zIn0to4Q6sfaw-0" vertex="1">
          <mxGeometry y="78" width="160" height="26" as="geometry" />
        </mxCell>
        <mxCell id="g6MJSV2zIn0to4Q6sfaw-2" value="FK country_id" style="text;align=center;verticalAlign=top;spacingLeft=4;spacingRight=4;overflow=hidden;rotatable=0;points=[[0,0.5],[1,0.5]];portConstraint=eastwest;rounded=0;shadow=0;fontFamily=Helvetica;" parent="g6MJSV2zIn0to4Q6sfaw-0" vertex="1">
          <mxGeometry y="104" width="160" height="26" as="geometry" />
        </mxCell>
        <mxCell id="g6MJSV2zIn0to4Q6sfaw-6" value="country" style="swimlane;align=center;verticalAlign=middle;childLayout=stackLayout;horizontal=1;startSize=26;horizontalStack=0;resizeParent=1;resizeLast=0;collapsible=1;marginBottom=0;rounded=0;shadow=0;strokeWidth=1;fontFamily=Helvetica;swimlaneFillColor=default;" parent="WIyWlLk6GJQsqaUBKTNV-1" vertex="1">
          <mxGeometry x="508" y="360" width="160" height="110" as="geometry">
            <mxRectangle x="230" y="140" width="160" height="26" as="alternateBounds" />
          </mxGeometry>
        </mxCell>
        <mxCell id="g6MJSV2zIn0to4Q6sfaw-7" value="PK id" style="text;align=center;verticalAlign=top;spacingLeft=4;spacingRight=4;overflow=hidden;rotatable=0;points=[[0,0.5],[1,0.5]];portConstraint=eastwest;fontFamily=Helvetica;" parent="g6MJSV2zIn0to4Q6sfaw-6" vertex="1">
          <mxGeometry y="26" width="160" height="26" as="geometry" />
        </mxCell>
        <mxCell id="g6MJSV2zIn0to4Q6sfaw-8" value="name" style="text;align=center;verticalAlign=top;spacingLeft=4;spacingRight=4;overflow=hidden;rotatable=0;points=[[0,0.5],[1,0.5]];portConstraint=eastwest;rounded=0;shadow=0;fontFamily=Helvetica;" parent="g6MJSV2zIn0to4Q6sfaw-6" vertex="1">
          <mxGeometry y="52" width="160" height="26" as="geometry" />
        </mxCell>
        <mxCell id="g6MJSV2zIn0to4Q6sfaw-9" value="crt_date" style="text;align=center;verticalAlign=top;spacingLeft=4;spacingRight=4;overflow=hidden;rotatable=0;points=[[0,0.5],[1,0.5]];portConstraint=eastwest;rounded=0;shadow=0;fontFamily=Helvetica;" parent="g6MJSV2zIn0to4Q6sfaw-6" vertex="1">
          <mxGeometry y="78" width="160" height="26" as="geometry" />
        </mxCell>
        <mxCell id="g6MJSV2zIn0to4Q6sfaw-20" value="" style="endArrow=blockThin;shadow=0;strokeWidth=1;rounded=0;endFill=1;edgeStyle=elbowEdgeStyle;elbow=vertical;startArrow=blockThin;startFill=1;align=center;fontFamily=Helvetica;" parent="WIyWlLk6GJQsqaUBKTNV-1" source="g6MJSV2zIn0to4Q6sfaw-0" target="zkfFHV4jXpPFQw0GAbJ--0" edge="1">
          <mxGeometry x="0.5" y="41" relative="1" as="geometry">
            <mxPoint x="410" y="195" as="sourcePoint" />
            <mxPoint x="518" y="195" as="targetPoint" />
            <mxPoint x="-40" y="32" as="offset" />
          </mxGeometry>
        </mxCell>
        <mxCell id="g6MJSV2zIn0to4Q6sfaw-21" value="1" style="edgeLabel;align=center;verticalAlign=middle;resizable=0;points=[];fontFamily=Helvetica;fontSize=15;" parent="g6MJSV2zIn0to4Q6sfaw-20" vertex="1" connectable="0">
          <mxGeometry x="-0.763" y="1" relative="1" as="geometry">
            <mxPoint x="-5" y="-7" as="offset" />
          </mxGeometry>
        </mxCell>
        <mxCell id="g6MJSV2zIn0to4Q6sfaw-22" value="*" style="edgeLabel;align=center;verticalAlign=middle;resizable=0;points=[];fontFamily=Helvetica;fontSize=23;" parent="g6MJSV2zIn0to4Q6sfaw-20" vertex="1" connectable="0">
          <mxGeometry x="0.737" y="1" relative="1" as="geometry">
            <mxPoint x="-6" y="8" as="offset" />
          </mxGeometry>
        </mxCell>
        <mxCell id="g6MJSV2zIn0to4Q6sfaw-23" value="" style="endArrow=blockThin;shadow=0;strokeWidth=1;rounded=0;endFill=1;edgeStyle=elbowEdgeStyle;elbow=vertical;startArrow=blockThin;startFill=1;align=center;fontFamily=Helvetica;" parent="WIyWlLk6GJQsqaUBKTNV-1" source="g6MJSV2zIn0to4Q6sfaw-6" target="g6MJSV2zIn0to4Q6sfaw-0" edge="1">
          <mxGeometry x="0.5" y="41" relative="1" as="geometry">
            <mxPoint x="330" y="370" as="sourcePoint" />
            <mxPoint x="330" y="280" as="targetPoint" />
            <mxPoint x="-40" y="32" as="offset" />
          </mxGeometry>
        </mxCell>
        <mxCell id="g6MJSV2zIn0to4Q6sfaw-24" value="1" style="edgeLabel;align=center;verticalAlign=middle;resizable=0;points=[];fontFamily=Helvetica;fontSize=15;labelBackgroundColor=none;" parent="g6MJSV2zIn0to4Q6sfaw-23" vertex="1" connectable="0">
          <mxGeometry x="-0.763" y="1" relative="1" as="geometry">
            <mxPoint x="-2" y="-11" as="offset" />
          </mxGeometry>
        </mxCell>
        <mxCell id="g6MJSV2zIn0to4Q6sfaw-25" value="*" style="edgeLabel;align=center;verticalAlign=middle;resizable=0;points=[];fontFamily=Helvetica;fontSize=23;labelBackgroundColor=none;" parent="g6MJSV2zIn0to4Q6sfaw-23" vertex="1" connectable="0">
          <mxGeometry x="0.737" y="1" relative="1" as="geometry">
            <mxPoint x="2" y="-11" as="offset" />
          </mxGeometry>
        </mxCell>
        <mxCell id="g6MJSV2zIn0to4Q6sfaw-26" value="users" style="swimlane;align=center;verticalAlign=top;childLayout=stackLayout;horizontal=1;startSize=26;horizontalStack=0;resizeParent=1;resizeLast=0;collapsible=1;marginBottom=0;rounded=0;shadow=0;strokeWidth=1;fontFamily=Helvetica;swimlaneFillColor=default;" parent="WIyWlLk6GJQsqaUBKTNV-1" vertex="1">
          <mxGeometry x="570" y="210" width="160" height="110" as="geometry">
            <mxRectangle x="550" y="140" width="160" height="26" as="alternateBounds" />
          </mxGeometry>
        </mxCell>
        <mxCell id="g6MJSV2zIn0to4Q6sfaw-27" value="PK id" style="text;align=center;verticalAlign=top;spacingLeft=4;spacingRight=4;overflow=hidden;rotatable=0;points=[[0,0.5],[1,0.5]];portConstraint=eastwest;fontFamily=Helvetica;" parent="g6MJSV2zIn0to4Q6sfaw-26" vertex="1">
          <mxGeometry y="26" width="160" height="26" as="geometry" />
        </mxCell>
        <mxCell id="g6MJSV2zIn0to4Q6sfaw-33" value="FK city_id" style="text;align=center;verticalAlign=top;spacingLeft=4;spacingRight=4;overflow=hidden;rotatable=0;points=[[0,0.5],[1,0.5]];portConstraint=eastwest;fontFamily=Helvetica;" parent="g6MJSV2zIn0to4Q6sfaw-26" vertex="1">
          <mxGeometry y="52" width="160" height="26" as="geometry" />
        </mxCell>
        <mxCell id="g6MJSV2zIn0to4Q6sfaw-29" value="" style="endArrow=blockThin;shadow=0;strokeWidth=1;rounded=0;endFill=1;edgeStyle=elbowEdgeStyle;elbow=vertical;startArrow=blockThin;startFill=1;align=center;fontFamily=Helvetica;" parent="WIyWlLk6GJQsqaUBKTNV-1" source="zkfFHV4jXpPFQw0GAbJ--0" target="g6MJSV2zIn0to4Q6sfaw-26" edge="1">
          <mxGeometry x="0.5" y="41" relative="1" as="geometry">
            <mxPoint x="518" y="195" as="sourcePoint" />
            <mxPoint x="410" y="195" as="targetPoint" />
            <mxPoint x="-40" y="32" as="offset" />
            <Array as="points">
              <mxPoint x="510" y="220" />
            </Array>
          </mxGeometry>
        </mxCell>
        <mxCell id="g6MJSV2zIn0to4Q6sfaw-30" value="1" style="edgeLabel;align=center;verticalAlign=middle;resizable=0;points=[];fontFamily=Helvetica;fontSize=15;" parent="g6MJSV2zIn0to4Q6sfaw-29" vertex="1" connectable="0">
          <mxGeometry x="-0.763" y="1" relative="1" as="geometry">
            <mxPoint y="1" as="offset" />
          </mxGeometry>
        </mxCell>
        <mxCell id="g6MJSV2zIn0to4Q6sfaw-31" value="*" style="edgeLabel;align=center;verticalAlign=middle;resizable=0;points=[];fontFamily=Helvetica;fontSize=23;" parent="g6MJSV2zIn0to4Q6sfaw-29" vertex="1" connectable="0">
          <mxGeometry x="0.737" y="1" relative="1" as="geometry">
            <mxPoint x="-2" y="4" as="offset" />
          </mxGeometry>
        </mxCell>
        <mxCell id="g6MJSV2zIn0to4Q6sfaw-78" value="roles" style="overflow=block;blockSpacing=1;swimlane;childLayout=stackLayout;horizontal=1;horizontalStack=0;resizeParent=1;resizeParentMax=0;resizeLast=0;collapsible=0;marginBottom=0;swimlaneFillColor=#ffffff;startSize=30;whiteSpace=wrap;align=center;spacing=0;strokeOpacity=100;strokeWidth=0.8;fontFamily=Helvetica;container=0;verticalAlign=middle;fillColor=#ffe6cc;strokeColor=#d79b00;" parent="WIyWlLk6GJQsqaUBKTNV-1" vertex="1">
          <mxGeometry x="96.99699859747548" y="1667.9975097276265" width="175.53997194950912" height="102" as="geometry" />
        </mxCell>
        <mxCell id="g6MJSV2zIn0to4Q6sfaw-79" value="PK id" style="part=1;resizeHeight=0;strokeColor=none;align=left;verticalAlign=middle;spacingLeft=4;spacingRight=4;overflow=hidden;rotatable=0;points=[[0,0.5],[1,0.5]];portConstraint=eastwest;whiteSpace=wrap;#FFFFFFwhiteSpace=wrap;fillColor=none;strokeOpacity=100;fontFamily=Helvetica;container=0;fontStyle=1" parent="g6MJSV2zIn0to4Q6sfaw-78" vertex="1">
          <mxGeometry y="30" width="175.53997194950912" height="24" as="geometry" />
        </mxCell>
        <mxCell id="g6MJSV2zIn0to4Q6sfaw-80" value="name" style="part=1;resizeHeight=0;align=left;verticalAlign=middle;spacingLeft=4;spacingRight=4;rotatable=0;points=[[0,0.5],[1,0.5]];portConstraint=eastwest;whiteSpace=wrap;#FFFFFFwhiteSpace=wrap;overflow=block;blockSpacing=1;opacity=5;fontFamily=Helvetica;container=0;" parent="g6MJSV2zIn0to4Q6sfaw-78" vertex="1">
          <mxGeometry y="54" width="175.53997194950912" height="24" as="geometry" />
        </mxCell>
        <mxCell id="g6MJSV2zIn0to4Q6sfaw-81" value="code_name" style="part=1;resizeHeight=0;strokeColor=none;align=left;verticalAlign=middle;spacingLeft=4;spacingRight=4;overflow=hidden;rotatable=0;points=[[0,0.5],[1,0.5]];portConstraint=eastwest;whiteSpace=wrap;#FFFFFFwhiteSpace=wrap;fillColor=none;strokeOpacity=100;fontFamily=Helvetica;container=0;" parent="g6MJSV2zIn0to4Q6sfaw-78" vertex="1">
          <mxGeometry y="78" width="175.53997194950912" height="24" as="geometry" />
        </mxCell>
        <mxCell id="g6MJSV2zIn0to4Q6sfaw-135" value="" style="jettySize=18;whiteSpace=wrap;strokeColor=#333333;strokeOpacity=100;strokeWidth=0.8;rounded=1;arcSize=24;edgeStyle=orthogonalEdgeStyle;startArrow=block;startFill=1;endArrow=block;endFill=1;lucidId=loGM5e4~qs10;align=center;fontFamily=Helvetica;" parent="WIyWlLk6GJQsqaUBKTNV-1" source="g6MJSV2zIn0to4Q6sfaw-78" target="g6MJSV2zIn0to4Q6sfaw-68" edge="1">
          <mxGeometry width="100" height="100" relative="1" as="geometry">
            <Array as="points">
              <mxPoint x="350" y="1719" />
              <mxPoint x="350" y="1719" />
            </Array>
            <mxPoint x="290" y="1732" as="sourcePoint" />
            <mxPoint x="370" y="1740" as="targetPoint" />
          </mxGeometry>
        </mxCell>
        <mxCell id="g6MJSV2zIn0to4Q6sfaw-137" value="1" style="text;resizable=0;align=center;verticalAlign=middle;fontFamily=Helvetica;container=0;fontSize=15;" parent="g6MJSV2zIn0to4Q6sfaw-135" vertex="1">
          <mxGeometry x="-0.6543768183726544" relative="1" as="geometry">
            <mxPoint x="-11" y="-14" as="offset" />
          </mxGeometry>
        </mxCell>
        <mxCell id="r9lJz0LnYFbDQjaUFzBp-0" value="*" style="edgeLabel;html=1;align=center;verticalAlign=middle;resizable=0;points=[];fontSize=23;labelBackgroundColor=none;" vertex="1" connectable="0" parent="g6MJSV2zIn0to4Q6sfaw-135">
          <mxGeometry x="0.7824" y="1" relative="1" as="geometry">
            <mxPoint x="-2" y="-7" as="offset" />
          </mxGeometry>
        </mxCell>
        <mxCell id="g6MJSV2zIn0to4Q6sfaw-35" value="spots" style="swimlane;align=center;verticalAlign=middle;childLayout=stackLayout;horizontal=1;startSize=26;horizontalStack=0;resizeParent=1;resizeLast=0;collapsible=1;marginBottom=0;rounded=0;shadow=0;strokeWidth=1;fontFamily=Helvetica;swimlaneFillColor=default;fillColor=#ffe6cc;strokeColor=#d79b00;" parent="WIyWlLk6GJQsqaUBKTNV-1" vertex="1">
          <mxGeometry x="100.00000000000003" y="1130" width="175.54" height="296" as="geometry" />
        </mxCell>
        <mxCell id="g6MJSV2zIn0to4Q6sfaw-36" value="PK id" style="part=1;resizeHeight=0;strokeColor=none;align=left;verticalAlign=middle;spacingLeft=4;spacingRight=4;overflow=hidden;rotatable=0;points=[[0,0.5],[1,0.5]];portConstraint=eastwest;whiteSpace=wrap;#FFFFFFwhiteSpace=wrap;fillColor=none;strokeOpacity=100;fontFamily=Helvetica;container=0;fontStyle=1" parent="g6MJSV2zIn0to4Q6sfaw-35" vertex="1">
          <mxGeometry y="26" width="175.54" height="24" as="geometry" />
        </mxCell>
        <mxCell id="g6MJSV2zIn0to4Q6sfaw-37" value="name" style="part=1;resizeHeight=0;align=left;verticalAlign=middle;spacingLeft=4;spacingRight=4;rotatable=0;points=[[0,0.5],[1,0.5]];portConstraint=eastwest;whiteSpace=wrap;#FFFFFFwhiteSpace=wrap;overflow=block;blockSpacing=1;opacity=5;fontFamily=Helvetica;container=0;" parent="g6MJSV2zIn0to4Q6sfaw-35" vertex="1">
          <mxGeometry y="50" width="175.54" height="20" as="geometry" />
        </mxCell>
        <mxCell id="g6MJSV2zIn0to4Q6sfaw-38" value="lat" style="part=1;resizeHeight=0;strokeColor=none;align=left;verticalAlign=middle;spacingLeft=4;spacingRight=4;overflow=hidden;rotatable=0;points=[[0,0.5],[1,0.5]];portConstraint=eastwest;whiteSpace=wrap;#FFFFFFwhiteSpace=wrap;fillColor=none;strokeOpacity=100;fontFamily=Helvetica;container=0;" parent="g6MJSV2zIn0to4Q6sfaw-35" vertex="1">
          <mxGeometry y="70" width="175.54" height="26" as="geometry" />
        </mxCell>
        <mxCell id="g6MJSV2zIn0to4Q6sfaw-39" value="lon" style="part=1;resizeHeight=0;align=left;verticalAlign=middle;spacingLeft=4;spacingRight=4;overflow=hidden;rotatable=0;points=[[0,0.5],[1,0.5]];portConstraint=eastwest;whiteSpace=wrap;#FFFFFFwhiteSpace=wrap;opacity=5;fontFamily=Helvetica;container=0;" parent="g6MJSV2zIn0to4Q6sfaw-35" vertex="1">
          <mxGeometry y="96" width="175.54" height="24" as="geometry" />
        </mxCell>
        <mxCell id="A6hxOELhmEAThyasm0-c-22" value="accepted" style="part=1;resizeHeight=0;strokeColor=none;align=left;verticalAlign=middle;spacingLeft=4;spacingRight=4;rotatable=0;points=[[0,0.5],[1,0.5]];portConstraint=eastwest;whiteSpace=wrap;#FFFFFFwhiteSpace=wrap;overflow=block;blockSpacing=1;fillColor=none;strokeOpacity=100;fontFamily=Helvetica;container=0;" parent="g6MJSV2zIn0to4Q6sfaw-35" vertex="1">
          <mxGeometry y="120" width="175.54" height="22" as="geometry" />
        </mxCell>
        <mxCell id="A6hxOELhmEAThyasm0-c-23" value="adding_date" style="part=1;resizeHeight=0;strokeColor=none;align=left;verticalAlign=middle;spacingLeft=4;spacingRight=4;rotatable=0;points=[[0,0.5],[1,0.5]];portConstraint=eastwest;whiteSpace=wrap;#FFFFFFwhiteSpace=wrap;overflow=block;blockSpacing=1;fillColor=none;strokeOpacity=100;fontFamily=Helvetica;container=0;" parent="g6MJSV2zIn0to4Q6sfaw-35" vertex="1">
          <mxGeometry y="142" width="175.54" height="22" as="geometry" />
        </mxCell>
        <mxCell id="A6hxOELhmEAThyasm0-c-24" value="updating_date" style="part=1;resizeHeight=0;strokeColor=none;align=left;verticalAlign=middle;spacingLeft=4;spacingRight=4;rotatable=0;points=[[0,0.5],[1,0.5]];portConstraint=eastwest;whiteSpace=wrap;#FFFFFFwhiteSpace=wrap;overflow=block;blockSpacing=1;fillColor=none;strokeOpacity=100;fontFamily=Helvetica;container=0;" parent="g6MJSV2zIn0to4Q6sfaw-35" vertex="1">
          <mxGeometry y="164" width="175.54" height="22" as="geometry" />
        </mxCell>
        <mxCell id="A6hxOELhmEAThyasm0-c-25" value="description" style="part=1;resizeHeight=0;strokeColor=none;align=left;verticalAlign=middle;spacingLeft=4;spacingRight=4;rotatable=0;points=[[0,0.5],[1,0.5]];portConstraint=eastwest;whiteSpace=wrap;#FFFFFFwhiteSpace=wrap;overflow=block;blockSpacing=1;fillColor=none;strokeOpacity=100;fontFamily=Helvetica;container=0;" parent="g6MJSV2zIn0to4Q6sfaw-35" vertex="1">
          <mxGeometry y="186" width="175.54" height="22" as="geometry" />
        </mxCell>
        <mxCell id="A6hxOELhmEAThyasm0-c-26" value="FK space_type_id" style="part=1;resizeHeight=0;strokeColor=none;align=left;verticalAlign=middle;spacingLeft=4;spacingRight=4;rotatable=0;points=[[0,0.5],[1,0.5]];portConstraint=eastwest;whiteSpace=wrap;#FFFFFFwhiteSpace=wrap;overflow=block;blockSpacing=1;fillColor=none;strokeOpacity=100;fontFamily=Helvetica;container=0;fontStyle=1" parent="g6MJSV2zIn0to4Q6sfaw-35" vertex="1">
          <mxGeometry y="208" width="175.54" height="22" as="geometry" />
        </mxCell>
        <mxCell id="A6hxOELhmEAThyasm0-c-8" value="FK user_id" style="part=1;resizeHeight=0;align=left;verticalAlign=middle;spacingLeft=4;spacingRight=4;rotatable=0;points=[[0,0.5],[1,0.5]];portConstraint=eastwest;whiteSpace=wrap;#FFFFFFwhiteSpace=wrap;overflow=block;blockSpacing=1;opacity=5;fontFamily=Helvetica;container=0;fontStyle=1" parent="g6MJSV2zIn0to4Q6sfaw-35" vertex="1">
          <mxGeometry y="230" width="175.54" height="22" as="geometry" />
        </mxCell>
        <mxCell id="A6hxOELhmEAThyasm0-c-9" value="FK moder_id" style="part=1;resizeHeight=0;strokeColor=none;align=left;verticalAlign=middle;spacingLeft=4;spacingRight=4;rotatable=0;points=[[0,0.5],[1,0.5]];portConstraint=eastwest;whiteSpace=wrap;#FFFFFFwhiteSpace=wrap;overflow=block;blockSpacing=1;fillColor=none;strokeOpacity=100;fontFamily=Helvetica;container=0;fontStyle=1" parent="g6MJSV2zIn0to4Q6sfaw-35" vertex="1">
          <mxGeometry y="252" width="175.54" height="22" as="geometry" />
        </mxCell>
        <mxCell id="A6hxOELhmEAThyasm0-c-27" value="FK city_id" style="part=1;resizeHeight=0;strokeColor=none;align=left;verticalAlign=middle;spacingLeft=4;spacingRight=4;rotatable=0;points=[[0,0.5],[1,0.5]];portConstraint=eastwest;whiteSpace=wrap;#FFFFFFwhiteSpace=wrap;overflow=block;blockSpacing=1;fillColor=none;strokeOpacity=100;fontFamily=Helvetica;container=0;fontStyle=1" parent="g6MJSV2zIn0to4Q6sfaw-35" vertex="1">
          <mxGeometry y="274" width="175.54" height="22" as="geometry" />
        </mxCell>
        <mxCell id="g6MJSV2zIn0to4Q6sfaw-48" value="spot_types" style="swimlane;align=center;verticalAlign=middle;childLayout=stackLayout;horizontal=1;startSize=26;horizontalStack=0;resizeParent=1;resizeLast=0;collapsible=1;marginBottom=0;rounded=0;shadow=0;strokeWidth=1;fontFamily=Helvetica;swimlaneFillColor=default;fillColor=#ffe6cc;strokeColor=#d79b00;" parent="WIyWlLk6GJQsqaUBKTNV-1" vertex="1">
          <mxGeometry x="378.8256661991588" y="984" width="176.71809256661993" height="78" as="geometry" />
        </mxCell>
        <mxCell id="g6MJSV2zIn0to4Q6sfaw-49" value="PK id" style="part=1;resizeHeight=0;strokeColor=none;align=left;verticalAlign=middle;spacingLeft=4;spacingRight=4;overflow=hidden;rotatable=0;points=[[0,0.5],[1,0.5]];portConstraint=eastwest;whiteSpace=wrap;#FFFFFFwhiteSpace=wrap;fillColor=none;strokeOpacity=100;fontFamily=Helvetica;container=0;fontStyle=1" parent="g6MJSV2zIn0to4Q6sfaw-48" vertex="1">
          <mxGeometry y="26" width="176.71809256661993" height="24" as="geometry" />
        </mxCell>
        <mxCell id="g6MJSV2zIn0to4Q6sfaw-50" value="name" style="part=1;resizeHeight=0;align=left;verticalAlign=middle;spacingLeft=4;spacingRight=4;rotatable=0;points=[[0,0.5],[1,0.5]];portConstraint=eastwest;whiteSpace=wrap;#FFFFFFwhiteSpace=wrap;overflow=block;blockSpacing=1;opacity=5;fontFamily=Helvetica;container=0;" parent="g6MJSV2zIn0to4Q6sfaw-48" vertex="1">
          <mxGeometry y="50" width="176.71809256661993" height="24" as="geometry" />
        </mxCell>
        <mxCell id="g6MJSV2zIn0to4Q6sfaw-52" value="space_types" style="overflow=block;blockSpacing=1;swimlane;childLayout=stackLayout;horizontal=1;horizontalStack=0;resizeParent=1;resizeParentMax=0;resizeLast=0;collapsible=0;marginBottom=0;swimlaneFillColor=#ffffff;startSize=30;whiteSpace=wrap;align=center;spacing=0;strokeOpacity=100;strokeWidth=0.8;fontFamily=Helvetica;container=0;verticalAlign=middle;fillColor=#ffe6cc;strokeColor=#d79b00;" parent="WIyWlLk6GJQsqaUBKTNV-1" vertex="1">
          <mxGeometry x="-177.003618513324" y="1140.001504539559" width="176.71809256661993" height="78" as="geometry" />
        </mxCell>
        <mxCell id="g6MJSV2zIn0to4Q6sfaw-53" value="PK id" style="part=1;resizeHeight=0;strokeColor=none;align=left;verticalAlign=top;spacingLeft=4;spacingRight=4;overflow=hidden;rotatable=0;points=[[0,0.5],[1,0.5]];portConstraint=eastwest;whiteSpace=wrap;#FFFFFFwhiteSpace=wrap;fillColor=none;strokeOpacity=100;fontFamily=Helvetica;fontStyle=1" parent="g6MJSV2zIn0to4Q6sfaw-52" vertex="1">
          <mxGeometry y="30" width="176.71809256661993" height="24" as="geometry" />
        </mxCell>
        <mxCell id="g6MJSV2zIn0to4Q6sfaw-54" value="name" style="part=1;resizeHeight=0;align=left;verticalAlign=top;spacingLeft=4;spacingRight=4;rotatable=0;points=[[0,0.5],[1,0.5]];portConstraint=eastwest;whiteSpace=wrap;#FFFFFFwhiteSpace=wrap;overflow=block;blockSpacing=1;opacity=5;fontFamily=Helvetica;" parent="g6MJSV2zIn0to4Q6sfaw-52" vertex="1">
          <mxGeometry y="54" width="176.71809256661993" height="24" as="geometry" />
        </mxCell>
        <mxCell id="g6MJSV2zIn0to4Q6sfaw-56" value="sport_types" style="swimlane;align=center;verticalAlign=middle;childLayout=stackLayout;horizontal=1;startSize=26;horizontalStack=0;resizeParent=1;resizeLast=0;collapsible=1;marginBottom=0;rounded=0;shadow=0;strokeWidth=1;fontFamily=Helvetica;swimlaneFillColor=default;fillColor=#ffe6cc;strokeColor=#d79b00;" parent="WIyWlLk6GJQsqaUBKTNV-1" vertex="1">
          <mxGeometry x="-170.00187938288917" y="984" width="175.53997194950912" height="102" as="geometry" />
        </mxCell>
        <mxCell id="g6MJSV2zIn0to4Q6sfaw-57" value="PK id" style="part=1;resizeHeight=0;strokeColor=none;align=left;verticalAlign=middle;spacingLeft=4;spacingRight=4;overflow=hidden;rotatable=0;points=[[0,0.5],[1,0.5]];portConstraint=eastwest;whiteSpace=wrap;#FFFFFFwhiteSpace=wrap;fillColor=none;strokeOpacity=100;fontFamily=Helvetica;container=0;fontStyle=1" parent="g6MJSV2zIn0to4Q6sfaw-56" vertex="1">
          <mxGeometry y="26" width="175.53997194950912" height="24" as="geometry" />
        </mxCell>
        <mxCell id="g6MJSV2zIn0to4Q6sfaw-58" value="name" style="part=1;resizeHeight=0;align=left;verticalAlign=middle;spacingLeft=4;spacingRight=4;rotatable=0;points=[[0,0.5],[1,0.5]];portConstraint=eastwest;whiteSpace=wrap;#FFFFFFwhiteSpace=wrap;overflow=block;blockSpacing=1;opacity=5;fontFamily=Helvetica;container=0;" parent="g6MJSV2zIn0to4Q6sfaw-56" vertex="1">
          <mxGeometry y="50" width="175.53997194950912" height="24" as="geometry" />
        </mxCell>
        <mxCell id="g6MJSV2zIn0to4Q6sfaw-59" value="transport_name" style="part=1;resizeHeight=0;strokeColor=none;align=left;verticalAlign=middle;spacingLeft=4;spacingRight=4;overflow=hidden;rotatable=0;points=[[0,0.5],[1,0.5]];portConstraint=eastwest;whiteSpace=wrap;#FFFFFFwhiteSpace=wrap;fillColor=none;strokeOpacity=100;fontFamily=Helvetica;container=0;" parent="g6MJSV2zIn0to4Q6sfaw-56" vertex="1">
          <mxGeometry y="74" width="175.53997194950912" height="24" as="geometry" />
        </mxCell>
        <mxCell id="g6MJSV2zIn0to4Q6sfaw-61" value="comments" style="overflow=block;blockSpacing=1;swimlane;childLayout=stackLayout;horizontal=1;horizontalStack=0;resizeParent=1;resizeParentMax=0;resizeLast=0;collapsible=0;marginBottom=0;swimlaneFillColor=#ffffff;startSize=30;whiteSpace=wrap;align=center;spacing=0;strokeOpacity=100;strokeWidth=0.8;fontFamily=Helvetica;container=0;verticalAlign=middle;fillColor=#ffe6cc;strokeColor=#d79b00;" parent="WIyWlLk6GJQsqaUBKTNV-1" vertex="1">
          <mxGeometry x="-140" y="1330" width="175.54" height="150" as="geometry" />
        </mxCell>
        <mxCell id="g6MJSV2zIn0to4Q6sfaw-62" value="PK id" style="part=1;resizeHeight=0;strokeColor=none;align=left;verticalAlign=middle;spacingLeft=4;spacingRight=4;overflow=hidden;rotatable=0;points=[[0,0.5],[1,0.5]];portConstraint=eastwest;whiteSpace=wrap;#FFFFFFwhiteSpace=wrap;fillColor=none;strokeOpacity=100;fontFamily=Helvetica;fontStyle=1" parent="g6MJSV2zIn0to4Q6sfaw-61" vertex="1">
          <mxGeometry y="30" width="175.54" height="24" as="geometry" />
        </mxCell>
        <mxCell id="g6MJSV2zIn0to4Q6sfaw-63" value="text" style="part=1;resizeHeight=0;align=left;verticalAlign=middle;spacingLeft=4;spacingRight=4;rotatable=0;points=[[0,0.5],[1,0.5]];portConstraint=eastwest;whiteSpace=wrap;#FFFFFFwhiteSpace=wrap;overflow=block;blockSpacing=1;opacity=5;fontFamily=Helvetica;" parent="g6MJSV2zIn0to4Q6sfaw-61" vertex="1">
          <mxGeometry y="54" width="175.54" height="24" as="geometry" />
        </mxCell>
        <mxCell id="g6MJSV2zIn0to4Q6sfaw-64" value="upload_date" style="part=1;resizeHeight=0;strokeColor=none;align=left;verticalAlign=middle;spacingLeft=4;spacingRight=4;overflow=hidden;rotatable=0;points=[[0,0.5],[1,0.5]];portConstraint=eastwest;whiteSpace=wrap;#FFFFFFwhiteSpace=wrap;fillColor=none;strokeOpacity=100;fontFamily=Helvetica;" parent="g6MJSV2zIn0to4Q6sfaw-61" vertex="1">
          <mxGeometry y="78" width="175.54" height="24" as="geometry" />
        </mxCell>
        <mxCell id="g6MJSV2zIn0to4Q6sfaw-65" value="FK spot_id" style="part=1;resizeHeight=0;align=left;verticalAlign=middle;spacingLeft=4;spacingRight=4;overflow=hidden;rotatable=0;points=[[0,0.5],[1,0.5]];portConstraint=eastwest;whiteSpace=wrap;#FFFFFFwhiteSpace=wrap;opacity=5;fontFamily=Helvetica;fontStyle=1" parent="g6MJSV2zIn0to4Q6sfaw-61" vertex="1">
          <mxGeometry y="102" width="175.54" height="24" as="geometry" />
        </mxCell>
        <mxCell id="A6hxOELhmEAThyasm0-c-12" value="FK user_id" style="part=1;resizeHeight=0;strokeColor=none;align=left;verticalAlign=middle;spacingLeft=4;spacingRight=4;rotatable=0;points=[[0,0.5],[1,0.5]];portConstraint=eastwest;whiteSpace=wrap;#FFFFFFwhiteSpace=wrap;overflow=block;blockSpacing=1;fillColor=none;strokeOpacity=100;fontFamily=Helvetica;fontStyle=1" parent="g6MJSV2zIn0to4Q6sfaw-61" vertex="1">
          <mxGeometry y="126" width="175.54" height="24" as="geometry" />
        </mxCell>
        <mxCell id="g6MJSV2zIn0to4Q6sfaw-68" value="users" style="overflow=block;blockSpacing=1;swimlane;childLayout=stackLayout;horizontal=1;horizontalStack=0;resizeParent=1;resizeParentMax=0;resizeLast=0;collapsible=0;marginBottom=0;swimlaneFillColor=#ffffff;startSize=30;whiteSpace=wrap;align=center;spacing=0;strokeOpacity=100;strokeWidth=0.8;fontFamily=Helvetica;container=0;verticalAlign=middle;fillColor=#ffe6cc;strokeColor=#d79b00;" parent="WIyWlLk6GJQsqaUBKTNV-1" vertex="1">
          <mxGeometry x="381.18190743338" y="1508.0010505836576" width="175.53997194950912" height="246" as="geometry" />
        </mxCell>
        <mxCell id="g6MJSV2zIn0to4Q6sfaw-69" value="PK id" style="part=1;resizeHeight=0;strokeColor=none;align=left;verticalAlign=middle;spacingLeft=4;spacingRight=4;overflow=hidden;rotatable=0;points=[[0,0.5],[1,0.5]];portConstraint=eastwest;whiteSpace=wrap;#FFFFFFwhiteSpace=wrap;fillColor=none;strokeOpacity=100;fontFamily=Helvetica;container=0;fontStyle=1" parent="g6MJSV2zIn0to4Q6sfaw-68" vertex="1">
          <mxGeometry y="30" width="175.53997194950912" height="24" as="geometry" />
        </mxCell>
        <mxCell id="g6MJSV2zIn0to4Q6sfaw-70" value="name" style="part=1;resizeHeight=0;align=left;verticalAlign=middle;spacingLeft=4;spacingRight=4;rotatable=0;points=[[0,0.5],[1,0.5]];portConstraint=eastwest;whiteSpace=wrap;#FFFFFFwhiteSpace=wrap;overflow=block;blockSpacing=1;opacity=5;fontFamily=Helvetica;container=0;" parent="g6MJSV2zIn0to4Q6sfaw-68" vertex="1">
          <mxGeometry y="54" width="175.53997194950912" height="24" as="geometry" />
        </mxCell>
        <mxCell id="g6MJSV2zIn0to4Q6sfaw-71" value="email" style="part=1;resizeHeight=0;strokeColor=none;align=left;verticalAlign=middle;spacingLeft=4;spacingRight=4;overflow=hidden;rotatable=0;points=[[0,0.5],[1,0.5]];portConstraint=eastwest;whiteSpace=wrap;#FFFFFFwhiteSpace=wrap;fillColor=none;strokeOpacity=100;fontFamily=Helvetica;container=0;" parent="g6MJSV2zIn0to4Q6sfaw-68" vertex="1">
          <mxGeometry y="78" width="175.53997194950912" height="24" as="geometry" />
        </mxCell>
        <mxCell id="g6MJSV2zIn0to4Q6sfaw-72" value="pass_hash" style="part=1;resizeHeight=0;align=left;verticalAlign=middle;spacingLeft=4;spacingRight=4;overflow=hidden;rotatable=0;points=[[0,0.5],[1,0.5]];portConstraint=eastwest;whiteSpace=wrap;#FFFFFFwhiteSpace=wrap;opacity=5;fontFamily=Helvetica;container=0;" parent="g6MJSV2zIn0to4Q6sfaw-68" vertex="1">
          <mxGeometry y="102" width="175.53997194950912" height="24" as="geometry" />
        </mxCell>
        <mxCell id="A6hxOELhmEAThyasm0-c-16" value="phone_number" style="part=1;resizeHeight=0;align=left;verticalAlign=middle;spacingLeft=4;spacingRight=4;overflow=hidden;rotatable=0;points=[[0,0.5],[1,0.5]];portConstraint=eastwest;whiteSpace=wrap;#FFFFFFwhiteSpace=wrap;opacity=5;fontFamily=Helvetica;container=0;" parent="g6MJSV2zIn0to4Q6sfaw-68" vertex="1">
          <mxGeometry y="126" width="175.53997194950912" height="24" as="geometry" />
        </mxCell>
        <mxCell id="A6hxOELhmEAThyasm0-c-17" value="birthday" style="part=1;resizeHeight=0;align=left;verticalAlign=middle;spacingLeft=4;spacingRight=4;overflow=hidden;rotatable=0;points=[[0,0.5],[1,0.5]];portConstraint=eastwest;whiteSpace=wrap;#FFFFFFwhiteSpace=wrap;opacity=5;fontFamily=Helvetica;container=0;" parent="g6MJSV2zIn0to4Q6sfaw-68" vertex="1">
          <mxGeometry y="150" width="175.53997194950912" height="24" as="geometry" />
        </mxCell>
        <mxCell id="A6hxOELhmEAThyasm0-c-18" value="reg_date" style="part=1;resizeHeight=0;align=left;verticalAlign=middle;spacingLeft=4;spacingRight=4;overflow=hidden;rotatable=0;points=[[0,0.5],[1,0.5]];portConstraint=eastwest;whiteSpace=wrap;#FFFFFFwhiteSpace=wrap;opacity=5;fontFamily=Helvetica;container=0;" parent="g6MJSV2zIn0to4Q6sfaw-68" vertex="1">
          <mxGeometry y="174" width="175.53997194950912" height="24" as="geometry" />
        </mxCell>
        <mxCell id="A6hxOELhmEAThyasm0-c-19" value="FK role_id" style="part=1;resizeHeight=0;align=left;verticalAlign=middle;spacingLeft=4;spacingRight=4;overflow=hidden;rotatable=0;points=[[0,0.5],[1,0.5]];portConstraint=eastwest;whiteSpace=wrap;#FFFFFFwhiteSpace=wrap;opacity=5;fontFamily=Helvetica;container=0;fontStyle=1" parent="g6MJSV2zIn0to4Q6sfaw-68" vertex="1">
          <mxGeometry y="198" width="175.53997194950912" height="24" as="geometry" />
        </mxCell>
        <mxCell id="A6hxOELhmEAThyasm0-c-62" value="FK city_id" style="part=1;resizeHeight=0;align=left;verticalAlign=middle;spacingLeft=4;spacingRight=4;overflow=hidden;rotatable=0;points=[[0,0.5],[1,0.5]];portConstraint=eastwest;whiteSpace=wrap;#FFFFFFwhiteSpace=wrap;opacity=5;fontFamily=Helvetica;container=0;fontStyle=1" parent="g6MJSV2zIn0to4Q6sfaw-68" vertex="1">
          <mxGeometry y="222" width="175.53997194950912" height="24" as="geometry" />
        </mxCell>
        <mxCell id="g6MJSV2zIn0to4Q6sfaw-83" value="image_info" style="swimlane;align=center;verticalAlign=top;childLayout=stackLayout;horizontal=1;startSize=26;horizontalStack=0;resizeParent=1;resizeLast=0;collapsible=1;marginBottom=0;rounded=0;shadow=0;strokeWidth=1;fontFamily=Helvetica;swimlaneFillColor=default;fillColor=#ffe6cc;strokeColor=#d79b00;" parent="WIyWlLk6GJQsqaUBKTNV-1" vertex="1">
          <mxGeometry x="380" y="1254" width="176.72" height="194" as="geometry" />
        </mxCell>
        <mxCell id="g6MJSV2zIn0to4Q6sfaw-84" value="PK id" style="part=1;resizeHeight=0;strokeColor=none;align=center;verticalAlign=top;spacingLeft=4;spacingRight=4;overflow=hidden;rotatable=0;points=[[0,0.5],[1,0.5]];portConstraint=eastwest;whiteSpace=wrap;#FFFFFFwhiteSpace=wrap;fillColor=none;strokeOpacity=100;fontFamily=Helvetica;container=0;fontStyle=1" parent="g6MJSV2zIn0to4Q6sfaw-83" vertex="1">
          <mxGeometry y="26" width="176.72" height="24" as="geometry" />
        </mxCell>
        <mxCell id="g6MJSV2zIn0to4Q6sfaw-85" value="orig_name" style="part=1;resizeHeight=0;align=center;verticalAlign=top;spacingLeft=4;spacingRight=4;rotatable=0;points=[[0,0.5],[1,0.5]];portConstraint=eastwest;whiteSpace=wrap;#FFFFFFwhiteSpace=wrap;overflow=block;blockSpacing=1;opacity=5;fontFamily=Helvetica;container=0;" parent="g6MJSV2zIn0to4Q6sfaw-83" vertex="1">
          <mxGeometry y="50" width="176.72" height="24" as="geometry" />
        </mxCell>
        <mxCell id="g6MJSV2zIn0to4Q6sfaw-86" value="gen_name" style="part=1;resizeHeight=0;strokeColor=none;align=center;verticalAlign=top;spacingLeft=4;spacingRight=4;overflow=hidden;rotatable=0;points=[[0,0.5],[1,0.5]];portConstraint=eastwest;whiteSpace=wrap;#FFFFFFwhiteSpace=wrap;fillColor=none;strokeOpacity=100;fontFamily=Helvetica;container=0;" parent="g6MJSV2zIn0to4Q6sfaw-83" vertex="1">
          <mxGeometry y="74" width="176.72" height="24" as="geometry" />
        </mxCell>
        <mxCell id="g6MJSV2zIn0to4Q6sfaw-87" value="size" style="part=1;resizeHeight=0;align=center;verticalAlign=top;spacingLeft=4;spacingRight=4;overflow=hidden;rotatable=0;points=[[0,0.5],[1,0.5]];portConstraint=eastwest;whiteSpace=wrap;#FFFFFFwhiteSpace=wrap;opacity=5;fontFamily=Helvetica;container=0;" parent="g6MJSV2zIn0to4Q6sfaw-83" vertex="1">
          <mxGeometry y="98" width="176.72" height="24" as="geometry" />
        </mxCell>
        <mxCell id="A6hxOELhmEAThyasm0-c-32" value="upload date" style="part=1;resizeHeight=0;align=center;verticalAlign=top;spacingLeft=4;spacingRight=4;overflow=hidden;rotatable=0;points=[[0,0.5],[1,0.5]];portConstraint=eastwest;whiteSpace=wrap;#FFFFFFwhiteSpace=wrap;opacity=5;fontFamily=Helvetica;container=0;" parent="g6MJSV2zIn0to4Q6sfaw-83" vertex="1">
          <mxGeometry y="122" width="176.72" height="24" as="geometry" />
        </mxCell>
        <mxCell id="A6hxOELhmEAThyasm0-c-34" value="FK spot_id" style="part=1;resizeHeight=0;align=center;verticalAlign=top;spacingLeft=4;spacingRight=4;overflow=hidden;rotatable=0;points=[[0,0.5],[1,0.5]];portConstraint=eastwest;whiteSpace=wrap;#FFFFFFwhiteSpace=wrap;opacity=5;fontFamily=Helvetica;container=0;fontStyle=1" parent="g6MJSV2zIn0to4Q6sfaw-83" vertex="1">
          <mxGeometry y="146" width="176.72" height="24" as="geometry" />
        </mxCell>
        <mxCell id="A6hxOELhmEAThyasm0-c-33" value="FK user_id" style="part=1;resizeHeight=0;align=center;verticalAlign=top;spacingLeft=4;spacingRight=4;overflow=hidden;rotatable=0;points=[[0,0.5],[1,0.5]];portConstraint=eastwest;whiteSpace=wrap;#FFFFFFwhiteSpace=wrap;opacity=5;fontFamily=Helvetica;container=0;fontStyle=1" parent="g6MJSV2zIn0to4Q6sfaw-83" vertex="1">
          <mxGeometry y="170" width="176.72" height="24" as="geometry" />
        </mxCell>
        <mxCell id="g6MJSV2zIn0to4Q6sfaw-92" value="spots_users" style="overflow=block;blockSpacing=1;swimlane;childLayout=stackLayout;horizontal=1;horizontalStack=0;resizeParent=1;resizeParentMax=0;resizeLast=0;collapsible=0;marginBottom=0;swimlaneFillColor=#ffffff;startSize=30;whiteSpace=wrap;align=center;spacing=0;strokeOpacity=100;strokeWidth=0.8;fontFamily=Helvetica;container=0;verticalAlign=middle;fillColor=#ffe6cc;strokeColor=#d79b00;" parent="WIyWlLk6GJQsqaUBKTNV-1" vertex="1">
          <mxGeometry x="99.99511921458628" y="1496.999559014267" width="175.53997194950912" height="126" as="geometry" />
        </mxCell>
        <mxCell id="g6MJSV2zIn0to4Q6sfaw-93" value="PK spot_id" style="part=1;resizeHeight=0;strokeColor=none;align=left;verticalAlign=middle;spacingLeft=4;spacingRight=4;overflow=hidden;rotatable=0;points=[[0,0.5],[1,0.5]];portConstraint=eastwest;whiteSpace=wrap;#FFFFFFwhiteSpace=wrap;fillColor=none;strokeOpacity=100;fontFamily=Helvetica;container=0;fontStyle=1" parent="g6MJSV2zIn0to4Q6sfaw-92" vertex="1">
          <mxGeometry y="30" width="175.53997194950912" height="24" as="geometry" />
        </mxCell>
        <mxCell id="g6MJSV2zIn0to4Q6sfaw-94" value="PK user_id" style="part=1;resizeHeight=0;align=left;verticalAlign=middle;spacingLeft=4;spacingRight=4;rotatable=0;points=[[0,0.5],[1,0.5]];portConstraint=eastwest;whiteSpace=wrap;#FFFFFFwhiteSpace=wrap;overflow=block;blockSpacing=1;opacity=5;fontFamily=Helvetica;container=0;fontStyle=1" parent="g6MJSV2zIn0to4Q6sfaw-92" vertex="1">
          <mxGeometry y="54" width="175.53997194950912" height="24" as="geometry" />
        </mxCell>
        <mxCell id="g6MJSV2zIn0to4Q6sfaw-95" value="liked" style="part=1;resizeHeight=0;strokeColor=none;align=left;verticalAlign=middle;spacingLeft=4;spacingRight=4;rotatable=0;points=[[0,0.5],[1,0.5]];portConstraint=eastwest;whiteSpace=wrap;#FFFFFFwhiteSpace=wrap;overflow=block;blockSpacing=1;fillColor=none;strokeOpacity=100;fontFamily=Helvetica;container=0;" parent="g6MJSV2zIn0to4Q6sfaw-92" vertex="1">
          <mxGeometry y="78" width="175.53997194950912" height="24" as="geometry" />
        </mxCell>
        <mxCell id="g6MJSV2zIn0to4Q6sfaw-96" value="favorite" style="part=1;resizeHeight=0;align=left;verticalAlign=middle;spacingLeft=4;spacingRight=4;overflow=hidden;rotatable=0;points=[[0,0.5],[1,0.5]];portConstraint=eastwest;whiteSpace=wrap;#FFFFFFwhiteSpace=wrap;opacity=5;fontFamily=Helvetica;container=0;" parent="g6MJSV2zIn0to4Q6sfaw-92" vertex="1">
          <mxGeometry y="102" width="175.53997194950912" height="24" as="geometry" />
        </mxCell>
        <mxCell id="g6MJSV2zIn0to4Q6sfaw-107" value="spots_sport_types" style="overflow=block;blockSpacing=1;swimlane;childLayout=stackLayout;horizontal=1;horizontalStack=0;resizeParent=1;resizeParentMax=0;resizeLast=0;collapsible=0;marginBottom=0;swimlaneFillColor=#ffffff;startSize=30;whiteSpace=wrap;align=center;spacing=0;strokeOpacity=100;strokeWidth=0.8;fontFamily=Helvetica;container=0;verticalAlign=middle;fillColor=#ffe6cc;strokeColor=#d79b00;" parent="WIyWlLk6GJQsqaUBKTNV-1" vertex="1">
          <mxGeometry x="99.99887798036471" y="984.0035538261998" width="175.53997194950912" height="78" as="geometry" />
        </mxCell>
        <mxCell id="g6MJSV2zIn0to4Q6sfaw-108" value="PK spot_id" style="part=1;resizeHeight=0;strokeColor=none;align=left;verticalAlign=middle;spacingLeft=4;spacingRight=4;overflow=hidden;rotatable=0;points=[[0,0.5],[1,0.5]];portConstraint=eastwest;whiteSpace=wrap;#FFFFFFwhiteSpace=wrap;fillColor=none;strokeOpacity=100;fontFamily=Helvetica;container=0;fontStyle=1" parent="g6MJSV2zIn0to4Q6sfaw-107" vertex="1">
          <mxGeometry y="30" width="175.53997194950912" height="24" as="geometry" />
        </mxCell>
        <mxCell id="g6MJSV2zIn0to4Q6sfaw-109" value="PK sport_type_id" style="part=1;resizeHeight=0;align=left;verticalAlign=middle;spacingLeft=4;spacingRight=4;rotatable=0;points=[[0,0.5],[1,0.5]];portConstraint=eastwest;whiteSpace=wrap;#FFFFFFwhiteSpace=wrap;overflow=block;blockSpacing=1;opacity=5;fontFamily=Helvetica;container=0;fontStyle=1" parent="g6MJSV2zIn0to4Q6sfaw-107" vertex="1">
          <mxGeometry y="54" width="175.53997194950912" height="24" as="geometry" />
        </mxCell>
        <mxCell id="g6MJSV2zIn0to4Q6sfaw-113" value="spots_spot_types" style="swimlane;align=center;verticalAlign=middle;childLayout=stackLayout;horizontal=1;startSize=26;horizontalStack=0;resizeParent=1;resizeLast=0;collapsible=1;marginBottom=0;rounded=0;shadow=0;strokeWidth=1;fontFamily=Helvetica;swimlaneFillColor=default;fillColor=#ffe6cc;strokeColor=#d79b00;" parent="WIyWlLk6GJQsqaUBKTNV-1" vertex="1">
          <mxGeometry x="380.00190743338015" y="1124.0001815823605" width="175.53997194950912" height="78" as="geometry" />
        </mxCell>
        <mxCell id="g6MJSV2zIn0to4Q6sfaw-114" value="PK spot_id" style="part=1;resizeHeight=0;strokeColor=none;align=left;verticalAlign=middle;spacingLeft=4;spacingRight=4;overflow=hidden;rotatable=0;points=[[0,0.5],[1,0.5]];portConstraint=eastwest;whiteSpace=wrap;#FFFFFFwhiteSpace=wrap;fillColor=none;strokeOpacity=100;fontFamily=Helvetica;container=0;fontStyle=1" parent="g6MJSV2zIn0to4Q6sfaw-113" vertex="1">
          <mxGeometry y="26" width="175.53997194950912" height="24" as="geometry" />
        </mxCell>
        <mxCell id="g6MJSV2zIn0to4Q6sfaw-115" value="PK spot_type_id" style="part=1;resizeHeight=0;align=left;verticalAlign=middle;spacingLeft=4;spacingRight=4;rotatable=0;points=[[0,0.5],[1,0.5]];portConstraint=eastwest;whiteSpace=wrap;#FFFFFFwhiteSpace=wrap;overflow=block;blockSpacing=1;opacity=5;fontFamily=Helvetica;container=0;fontStyle=1" parent="g6MJSV2zIn0to4Q6sfaw-113" vertex="1">
          <mxGeometry y="50" width="175.53997194950912" height="24" as="geometry" />
        </mxCell>
        <mxCell id="g6MJSV2zIn0to4Q6sfaw-119" value="" style="jettySize=18;whiteSpace=wrap;strokeColor=#333333;strokeOpacity=100;strokeWidth=0.8;rounded=1;arcSize=24;edgeStyle=orthogonalEdgeStyle;startArrow=block;startFill=1;endArrow=block;endFill=1;lucidId=aQEv0hEq-9D~;align=center;fontFamily=Helvetica;" parent="WIyWlLk6GJQsqaUBKTNV-1" source="g6MJSV2zIn0to4Q6sfaw-52" target="g6MJSV2zIn0to4Q6sfaw-35" edge="1">
          <mxGeometry width="100" height="100" relative="1" as="geometry">
            <Array as="points">
              <mxPoint x="-43" y="1179" />
              <mxPoint x="-43" y="1180" />
            </Array>
            <mxPoint x="63.42496493688623" y="871.9076523994813" as="targetPoint" />
          </mxGeometry>
        </mxCell>
        <mxCell id="g6MJSV2zIn0to4Q6sfaw-161" value="*" style="edgeLabel;align=center;verticalAlign=middle;resizable=0;points=[];fontFamily=Helvetica;container=0;fontSize=23;fontColor=default;labelBackgroundColor=none;" parent="g6MJSV2zIn0to4Q6sfaw-119" vertex="1" connectable="0">
          <mxGeometry x="0.853" y="2" relative="1" as="geometry">
            <mxPoint x="-4" y="-7" as="offset" />
          </mxGeometry>
        </mxCell>
        <mxCell id="g6MJSV2zIn0to4Q6sfaw-120" value=" " style="text;resizable=0;align=center;verticalAlign=middle;fontFamily=Helvetica;container=0;" parent="g6MJSV2zIn0to4Q6sfaw-119" vertex="1">
          <mxGeometry x="0.5683942889964346" relative="1" as="geometry" />
        </mxCell>
        <mxCell id="g6MJSV2zIn0to4Q6sfaw-121" value="1" style="text;resizable=0;align=center;verticalAlign=middle;fontFamily=Helvetica;container=0;fontSize=15;" parent="g6MJSV2zIn0to4Q6sfaw-119" vertex="1">
          <mxGeometry x="-0.7295888114457861" relative="1" as="geometry">
            <mxPoint x="-1" y="-13" as="offset" />
          </mxGeometry>
        </mxCell>
        <mxCell id="g6MJSV2zIn0to4Q6sfaw-122" value="" style="jettySize=18;whiteSpace=wrap;strokeColor=#333333;strokeOpacity=100;strokeWidth=0.8;rounded=1;arcSize=24;edgeStyle=orthogonalEdgeStyle;startArrow=block;startFill=1;endArrow=block;endFill=1;lucidId=aWEvnbeaMvTp;align=center;fontFamily=Helvetica;" parent="WIyWlLk6GJQsqaUBKTNV-1" source="g6MJSV2zIn0to4Q6sfaw-61" target="g6MJSV2zIn0to4Q6sfaw-35" edge="1">
          <mxGeometry width="100" height="100" relative="1" as="geometry">
            <Array as="points">
              <mxPoint x="-50" y="1330" />
            </Array>
            <mxPoint x="160" y="1048.2222493489583" as="targetPoint" />
          </mxGeometry>
        </mxCell>
        <mxCell id="g6MJSV2zIn0to4Q6sfaw-123" value="1" style="text;resizable=0;align=center;verticalAlign=middle;fontFamily=Helvetica;container=0;fontSize=15;" parent="g6MJSV2zIn0to4Q6sfaw-122" vertex="1">
          <mxGeometry x="0.5683942889964346" relative="1" as="geometry">
            <mxPoint x="6" y="-14" as="offset" />
          </mxGeometry>
        </mxCell>
        <mxCell id="g6MJSV2zIn0to4Q6sfaw-124" value=" " style="text;resizable=0;align=center;verticalAlign=middle;fontFamily=Helvetica;container=0;" parent="g6MJSV2zIn0to4Q6sfaw-122" vertex="1">
          <mxGeometry x="-0.7295888114457861" relative="1" as="geometry" />
        </mxCell>
        <mxCell id="A6hxOELhmEAThyasm0-c-15" value="*" style="edgeLabel;html=1;align=center;verticalAlign=middle;resizable=0;points=[];fontSize=23;fontFamily=Helvetica;fontColor=default;labelBackgroundColor=none;" parent="g6MJSV2zIn0to4Q6sfaw-122" vertex="1" connectable="0">
          <mxGeometry x="-0.7924" relative="1" as="geometry">
            <mxPoint x="6" y="-9" as="offset" />
          </mxGeometry>
        </mxCell>
        <mxCell id="g6MJSV2zIn0to4Q6sfaw-125" value="" style="jettySize=18;whiteSpace=wrap;strokeColor=#333333;strokeOpacity=100;strokeWidth=0.8;rounded=1;arcSize=24;edgeStyle=orthogonalEdgeStyle;startArrow=block;startFill=1;endArrow=block;endFill=1;lucidId=WMXv0Uj-YdmI;align=center;fontFamily=Helvetica;" parent="WIyWlLk6GJQsqaUBKTNV-1" source="g6MJSV2zIn0to4Q6sfaw-68" target="g6MJSV2zIn0to4Q6sfaw-61" edge="1">
          <mxGeometry width="100" height="100" relative="1" as="geometry">
            <Array as="points">
              <mxPoint x="-52" y="1641" />
            </Array>
            <mxPoint x="430.0052875175318" y="1602.9950505836573" as="sourcePoint" />
            <mxPoint x="-215.34000000000023" y="1191.57" as="targetPoint" />
          </mxGeometry>
        </mxCell>
        <mxCell id="g6MJSV2zIn0to4Q6sfaw-126" value=" " style="text;resizable=0;align=center;verticalAlign=middle;fontFamily=Helvetica;container=0;" parent="g6MJSV2zIn0to4Q6sfaw-125" vertex="1">
          <mxGeometry x="0.5683942889964346" relative="1" as="geometry" />
        </mxCell>
        <mxCell id="g6MJSV2zIn0to4Q6sfaw-127" value="1" style="text;resizable=0;align=center;verticalAlign=middle;fontFamily=Helvetica;container=0;" parent="g6MJSV2zIn0to4Q6sfaw-125" vertex="1">
          <mxGeometry x="-0.864213943890782" relative="1" as="geometry">
            <mxPoint x="26" y="-10" as="offset" />
          </mxGeometry>
        </mxCell>
        <mxCell id="A6hxOELhmEAThyasm0-c-20" value="*" style="edgeLabel;html=1;align=center;verticalAlign=middle;resizable=0;points=[];fontSize=23;fontFamily=Helvetica;fontColor=default;labelBackgroundColor=none;" parent="g6MJSV2zIn0to4Q6sfaw-125" vertex="1" connectable="0">
          <mxGeometry x="0.9601" y="-4" relative="1" as="geometry">
            <mxPoint x="5" y="4" as="offset" />
          </mxGeometry>
        </mxCell>
        <mxCell id="g6MJSV2zIn0to4Q6sfaw-128" value="" style="jettySize=18;whiteSpace=wrap;strokeColor=#333333;strokeOpacity=100;strokeWidth=0.8;rounded=1;arcSize=24;edgeStyle=orthogonalEdgeStyle;startArrow=block;startFill=1;endArrow=block;endFill=1;exitX=-0.003;exitY=0.33;exitPerimeter=0;entryX=1.003;entryY=0.633;entryPerimeter=0;lucidId=sPXvQrO7nVfi;align=center;fontFamily=Helvetica;" parent="WIyWlLk6GJQsqaUBKTNV-1" source="g6MJSV2zIn0to4Q6sfaw-83" target="g6MJSV2zIn0to4Q6sfaw-35" edge="1">
          <mxGeometry width="100" height="100" relative="1" as="geometry">
            <Array as="points" />
          </mxGeometry>
        </mxCell>
        <mxCell id="A6hxOELhmEAThyasm0-c-35" value="1" style="edgeLabel;html=1;align=center;verticalAlign=middle;resizable=0;points=[];fontSize=15;fontFamily=Helvetica;fontColor=default;labelBackgroundColor=none;" parent="g6MJSV2zIn0to4Q6sfaw-128" vertex="1" connectable="0">
          <mxGeometry x="0.8883" relative="1" as="geometry">
            <mxPoint x="4" y="-9" as="offset" />
          </mxGeometry>
        </mxCell>
        <mxCell id="A6hxOELhmEAThyasm0-c-36" value="*" style="edgeLabel;html=1;align=center;verticalAlign=middle;resizable=0;points=[];fontSize=23;fontFamily=Helvetica;fontColor=default;labelBackgroundColor=none;" parent="g6MJSV2zIn0to4Q6sfaw-128" vertex="1" connectable="0">
          <mxGeometry x="-0.9302" relative="1" as="geometry">
            <mxPoint x="-6" y="-5" as="offset" />
          </mxGeometry>
        </mxCell>
        <mxCell id="g6MJSV2zIn0to4Q6sfaw-130" value="" style="jettySize=18;whiteSpace=wrap;strokeColor=#333333;strokeOpacity=100;strokeWidth=0.8;rounded=1;arcSize=24;edgeStyle=orthogonalEdgeStyle;startArrow=block;startFill=1;endArrow=block;endFill=1;exitX=0.5;exitY=1.002;exitPerimeter=0;lucidId=qeYvDfjWV_oc;align=center;fontFamily=Helvetica;" parent="WIyWlLk6GJQsqaUBKTNV-1" source="g6MJSV2zIn0to4Q6sfaw-83" target="g6MJSV2zIn0to4Q6sfaw-68" edge="1">
          <mxGeometry width="100" height="100" relative="1" as="geometry">
            <Array as="points" />
            <mxPoint x="518.3609537166899" y="1271.1762645914396" as="targetPoint" />
          </mxGeometry>
        </mxCell>
        <mxCell id="A6hxOELhmEAThyasm0-c-30" value="1" style="edgeLabel;html=1;align=center;verticalAlign=middle;resizable=0;points=[];fontSize=15;fontFamily=Helvetica;fontColor=default;labelBackgroundColor=none;" parent="g6MJSV2zIn0to4Q6sfaw-130" vertex="1" connectable="0">
          <mxGeometry x="0.8906" y="1" relative="1" as="geometry">
            <mxPoint x="5" y="-13" as="offset" />
          </mxGeometry>
        </mxCell>
        <mxCell id="A6hxOELhmEAThyasm0-c-31" value="*" style="edgeLabel;html=1;align=center;verticalAlign=middle;resizable=0;points=[];fontSize=23;fontFamily=Helvetica;fontColor=default;labelBackgroundColor=none;" parent="g6MJSV2zIn0to4Q6sfaw-130" vertex="1" connectable="0">
          <mxGeometry x="-0.9215" y="2" relative="1" as="geometry">
            <mxPoint x="4" y="15" as="offset" />
          </mxGeometry>
        </mxCell>
        <mxCell id="g6MJSV2zIn0to4Q6sfaw-132" value="" style="jettySize=18;whiteSpace=wrap;strokeColor=#333333;strokeOpacity=100;strokeWidth=0.8;rounded=1;arcSize=24;edgeStyle=orthogonalEdgeStyle;startArrow=block;startFill=1;endArrow=block;endFill=1;exitX=0.503;exitY=1.001;exitPerimeter=0;entryX=0.5;entryY=-0.003;entryPerimeter=0;lucidId=riGMy1GJ0MTs;align=center;fontFamily=Helvetica;" parent="WIyWlLk6GJQsqaUBKTNV-1" source="g6MJSV2zIn0to4Q6sfaw-35" target="g6MJSV2zIn0to4Q6sfaw-92" edge="1">
          <mxGeometry width="100" height="100" relative="1" as="geometry">
            <Array as="points" />
          </mxGeometry>
        </mxCell>
        <mxCell id="g6MJSV2zIn0to4Q6sfaw-133" value="" style="text;resizable=0;align=center;verticalAlign=middle;fontFamily=Helvetica;container=0;" parent="g6MJSV2zIn0to4Q6sfaw-132" vertex="1">
          <mxGeometry x="-0.10816796257880534" relative="1" as="geometry" />
        </mxCell>
        <mxCell id="A6hxOELhmEAThyasm0-c-28" value="1" style="edgeLabel;html=1;align=left;verticalAlign=middle;resizable=0;points=[];fontSize=15;fontFamily=Helvetica;fontColor=default;labelBackgroundColor=none;" parent="g6MJSV2zIn0to4Q6sfaw-132" vertex="1" connectable="0">
          <mxGeometry x="0.625" y="1" relative="1" as="geometry">
            <mxPoint x="4" y="-43" as="offset" />
          </mxGeometry>
        </mxCell>
        <mxCell id="A6hxOELhmEAThyasm0-c-29" value="*" style="edgeLabel;html=1;align=center;verticalAlign=middle;resizable=0;points=[];fontSize=23;fontFamily=Helvetica;fontColor=default;labelBackgroundColor=none;" parent="g6MJSV2zIn0to4Q6sfaw-132" vertex="1" connectable="0">
          <mxGeometry x="-0.6902" relative="1" as="geometry">
            <mxPoint x="10" y="53" as="offset" />
          </mxGeometry>
        </mxCell>
        <mxCell id="g6MJSV2zIn0to4Q6sfaw-138" value="" style="jettySize=18;whiteSpace=wrap;strokeColor=#333333;strokeOpacity=100;strokeWidth=0.8;rounded=1;arcSize=24;edgeStyle=orthogonalEdgeStyle;startArrow=block;startFill=1;endArrow=block;endFill=1;lucidId=.DGMYGT~cEmr;align=center;fontFamily=Helvetica;" parent="WIyWlLk6GJQsqaUBKTNV-1" source="g6MJSV2zIn0to4Q6sfaw-68" target="g6MJSV2zIn0to4Q6sfaw-92" edge="1">
          <mxGeometry width="100" height="100" relative="1" as="geometry">
            <Array as="points">
              <mxPoint x="330" y="1590" />
              <mxPoint x="330" y="1590" />
            </Array>
            <mxPoint x="241.20336605890589" y="1250.511543450065" as="targetPoint" />
          </mxGeometry>
        </mxCell>
        <mxCell id="g6MJSV2zIn0to4Q6sfaw-139" value="1" style="text;resizable=0;align=center;verticalAlign=middle;fontFamily=Helvetica;container=0;" parent="g6MJSV2zIn0to4Q6sfaw-138" vertex="1">
          <mxGeometry x="-0.864213943890782" relative="1" as="geometry">
            <mxPoint x="-6" y="-7" as="offset" />
          </mxGeometry>
        </mxCell>
        <mxCell id="r9lJz0LnYFbDQjaUFzBp-3" value="*" style="edgeLabel;html=1;align=center;verticalAlign=middle;resizable=0;points=[];labelBackgroundColor=none;fontSize=23;" vertex="1" connectable="0" parent="g6MJSV2zIn0to4Q6sfaw-138">
          <mxGeometry x="0.7078" y="-1" relative="1" as="geometry">
            <mxPoint x="-1" as="offset" />
          </mxGeometry>
        </mxCell>
        <mxCell id="g6MJSV2zIn0to4Q6sfaw-143" value="" style="jettySize=18;whiteSpace=wrap;strokeColor=#333333;strokeOpacity=100;strokeWidth=0.8;rounded=1;arcSize=24;edgeStyle=orthogonalEdgeStyle;startArrow=block;startFill=1;endArrow=block;endFill=1;exitX=-0.003;exitY=0.189;exitPerimeter=0;entryX=1;entryY=0.959;entryPerimeter=0;lucidId=IBX2~wCdSe7p;align=center;fontFamily=Helvetica;" parent="WIyWlLk6GJQsqaUBKTNV-1" source="g6MJSV2zIn0to4Q6sfaw-68" target="g6MJSV2zIn0to4Q6sfaw-35" edge="1">
          <mxGeometry width="100" height="100" relative="1" as="geometry">
            <Array as="points">
              <mxPoint x="330" y="1555" />
              <mxPoint x="330" y="1550" />
              <mxPoint x="328" y="1550" />
              <mxPoint x="328" y="1414" />
            </Array>
          </mxGeometry>
        </mxCell>
        <mxCell id="g6MJSV2zIn0to4Q6sfaw-144" value=" " style="text;resizable=0;align=center;verticalAlign=middle;fontFamily=Helvetica;container=0;" parent="g6MJSV2zIn0to4Q6sfaw-143" vertex="1">
          <mxGeometry x="0.5683942889964346" relative="1" as="geometry" />
        </mxCell>
        <mxCell id="g6MJSV2zIn0to4Q6sfaw-145" value="1" style="text;resizable=0;align=center;verticalAlign=middle;fontFamily=Helvetica;container=0;" parent="g6MJSV2zIn0to4Q6sfaw-143" vertex="1">
          <mxGeometry x="-0.864213943890782" relative="1" as="geometry">
            <mxPoint x="2" y="-9" as="offset" />
          </mxGeometry>
        </mxCell>
        <mxCell id="r9lJz0LnYFbDQjaUFzBp-2" value="*" style="edgeLabel;html=1;align=center;verticalAlign=middle;resizable=0;points=[];labelBackgroundColor=none;fontSize=23;" vertex="1" connectable="0" parent="g6MJSV2zIn0to4Q6sfaw-143">
          <mxGeometry x="0.8571" y="-4" relative="1" as="geometry">
            <mxPoint x="-3" as="offset" />
          </mxGeometry>
        </mxCell>
        <mxCell id="g6MJSV2zIn0to4Q6sfaw-146" value="" style="jettySize=18;whiteSpace=wrap;strokeColor=#333333;strokeOpacity=100;strokeWidth=0.8;rounded=1;arcSize=24;edgeStyle=orthogonalEdgeStyle;startArrow=block;startFill=1;endArrow=block;endFill=1;entryX=0.5;entryY=1.005;entryPerimeter=0;lucidId=D~X2vWxQs8pL;align=center;fontFamily=Helvetica;" parent="WIyWlLk6GJQsqaUBKTNV-1" source="g6MJSV2zIn0to4Q6sfaw-35" target="g6MJSV2zIn0to4Q6sfaw-107" edge="1">
          <mxGeometry width="100" height="100" relative="1" as="geometry">
            <Array as="points" />
            <mxPoint x="150.1935483870966" y="841.2390142671854" as="sourcePoint" />
          </mxGeometry>
        </mxCell>
        <mxCell id="g6MJSV2zIn0to4Q6sfaw-147" value=" " style="text;resizable=0;align=center;verticalAlign=middle;fontFamily=Helvetica;container=0;" parent="g6MJSV2zIn0to4Q6sfaw-146" vertex="1">
          <mxGeometry x="0.5683942889964346" relative="1" as="geometry" />
        </mxCell>
        <mxCell id="g6MJSV2zIn0to4Q6sfaw-148" value="" style="text;resizable=0;align=center;verticalAlign=middle;fontFamily=Helvetica;container=0;" parent="g6MJSV2zIn0to4Q6sfaw-146" vertex="1">
          <mxGeometry relative="1" as="geometry" />
        </mxCell>
        <mxCell id="g6MJSV2zIn0to4Q6sfaw-149" value="1" style="text;resizable=0;align=center;verticalAlign=middle;fontFamily=Helvetica;container=0;fontSize=15;" parent="g6MJSV2zIn0to4Q6sfaw-146" vertex="1">
          <mxGeometry x="-0.3771925199486652" relative="1" as="geometry">
            <mxPoint x="10" y="6" as="offset" />
          </mxGeometry>
        </mxCell>
        <mxCell id="A6hxOELhmEAThyasm0-c-14" value="*" style="edgeLabel;html=1;align=center;verticalAlign=middle;resizable=0;points=[];fontSize=23;fontFamily=Helvetica;fontColor=default;labelBackgroundColor=none;" parent="g6MJSV2zIn0to4Q6sfaw-146" vertex="1" connectable="0">
          <mxGeometry x="0.7047" relative="1" as="geometry">
            <mxPoint x="10" y="5" as="offset" />
          </mxGeometry>
        </mxCell>
        <mxCell id="g6MJSV2zIn0to4Q6sfaw-150" value="" style="jettySize=18;whiteSpace=wrap;strokeColor=#333333;strokeOpacity=100;strokeWidth=0.8;rounded=1;arcSize=24;edgeStyle=orthogonalEdgeStyle;startArrow=block;startFill=1;endArrow=block;endFill=1;exitX=1.003;exitY=0.53;exitPerimeter=0;entryX=-0.003;entryY=0.693;entryPerimeter=0;lucidId=eaY2F55jY4Xw;align=center;fontFamily=Helvetica;" parent="WIyWlLk6GJQsqaUBKTNV-1" source="g6MJSV2zIn0to4Q6sfaw-56" target="g6MJSV2zIn0to4Q6sfaw-107" edge="1">
          <mxGeometry width="100" height="100" relative="1" as="geometry">
            <Array as="points" />
          </mxGeometry>
        </mxCell>
        <mxCell id="g6MJSV2zIn0to4Q6sfaw-151" value=" " style="text;resizable=0;align=center;verticalAlign=middle;fontFamily=Helvetica;container=0;" parent="g6MJSV2zIn0to4Q6sfaw-150" vertex="1">
          <mxGeometry x="0.5683942889964346" relative="1" as="geometry" />
        </mxCell>
        <mxCell id="g6MJSV2zIn0to4Q6sfaw-152" value="1" style="text;resizable=0;align=center;verticalAlign=middle;fontFamily=Helvetica;container=0;fontSize=15;" parent="g6MJSV2zIn0to4Q6sfaw-150" vertex="1">
          <mxGeometry x="-0.7295888114457861" relative="1" as="geometry">
            <mxPoint x="1" y="-10" as="offset" />
          </mxGeometry>
        </mxCell>
        <mxCell id="A6hxOELhmEAThyasm0-c-13" value="*" style="edgeLabel;html=1;align=center;verticalAlign=middle;resizable=0;points=[];fontSize=23;fontFamily=Helvetica;fontColor=default;labelBackgroundColor=none;" parent="g6MJSV2zIn0to4Q6sfaw-150" vertex="1" connectable="0">
          <mxGeometry x="0.8301" relative="1" as="geometry">
            <mxPoint x="-3" y="-5" as="offset" />
          </mxGeometry>
        </mxCell>
        <mxCell id="g6MJSV2zIn0to4Q6sfaw-153" value="" style="jettySize=18;whiteSpace=wrap;strokeColor=#333333;strokeOpacity=100;strokeWidth=0.8;rounded=1;arcSize=24;edgeStyle=orthogonalEdgeStyle;startArrow=block;startFill=1;endArrow=block;endFill=1;exitX=0.496;exitY=-0.005;exitPerimeter=0;entryX=0.5;entryY=1.005;entryPerimeter=0;lucidId=SbY2ppS5XO9E;align=center;fontFamily=Helvetica;" parent="WIyWlLk6GJQsqaUBKTNV-1" source="g6MJSV2zIn0to4Q6sfaw-113" target="g6MJSV2zIn0to4Q6sfaw-48" edge="1">
          <mxGeometry width="100" height="100" relative="1" as="geometry">
            <Array as="points" />
          </mxGeometry>
        </mxCell>
        <mxCell id="g6MJSV2zIn0to4Q6sfaw-154" value=" " style="text;resizable=0;align=center;verticalAlign=middle;fontFamily=Helvetica;container=0;" parent="g6MJSV2zIn0to4Q6sfaw-153" vertex="1">
          <mxGeometry x="0.5683942889964346" relative="1" as="geometry" />
        </mxCell>
        <mxCell id="g6MJSV2zIn0to4Q6sfaw-155" value="" style="text;resizable=0;align=center;verticalAlign=middle;fontFamily=Helvetica;container=0;" parent="g6MJSV2zIn0to4Q6sfaw-153" vertex="1">
          <mxGeometry relative="1" as="geometry" />
        </mxCell>
        <mxCell id="g6MJSV2zIn0to4Q6sfaw-156" value="1" style="text;resizable=0;align=center;verticalAlign=middle;fontFamily=Helvetica;container=0;fontSize=15;" parent="g6MJSV2zIn0to4Q6sfaw-153" vertex="1">
          <mxGeometry x="-0.3771925199486652" relative="1" as="geometry">
            <mxPoint x="8" y="-35" as="offset" />
          </mxGeometry>
        </mxCell>
        <mxCell id="A6hxOELhmEAThyasm0-c-38" value="*" style="edgeLabel;html=1;align=center;verticalAlign=middle;resizable=0;points=[];fontSize=23;fontFamily=Helvetica;fontColor=default;labelBackgroundColor=none;" parent="g6MJSV2zIn0to4Q6sfaw-153" vertex="1" connectable="0">
          <mxGeometry x="0.6662" y="-1" relative="1" as="geometry">
            <mxPoint x="8" y="43" as="offset" />
          </mxGeometry>
        </mxCell>
        <mxCell id="g6MJSV2zIn0to4Q6sfaw-157" value="" style="jettySize=18;whiteSpace=wrap;strokeColor=#333333;strokeOpacity=100;strokeWidth=0.8;rounded=1;arcSize=24;edgeStyle=orthogonalEdgeStyle;startArrow=block;startFill=1;endArrow=block;endFill=1;exitX=1.003;exitY=0.121;exitPerimeter=0;entryX=-0.003;entryY=0.539;entryPerimeter=0;lucidId=0bY2libbuu~w;align=center;fontFamily=Helvetica;" parent="WIyWlLk6GJQsqaUBKTNV-1" source="g6MJSV2zIn0to4Q6sfaw-35" target="g6MJSV2zIn0to4Q6sfaw-113" edge="1">
          <mxGeometry width="100" height="100" relative="1" as="geometry">
            <Array as="points" />
          </mxGeometry>
        </mxCell>
        <mxCell id="g6MJSV2zIn0to4Q6sfaw-158" value=" " style="text;resizable=0;align=center;verticalAlign=middle;fontFamily=Helvetica;container=0;" parent="g6MJSV2zIn0to4Q6sfaw-157" vertex="1">
          <mxGeometry x="0.5683942889964346" relative="1" as="geometry" />
        </mxCell>
        <mxCell id="g6MJSV2zIn0to4Q6sfaw-159" value="" style="text;resizable=0;align=center;verticalAlign=middle;fontFamily=Helvetica;container=0;" parent="g6MJSV2zIn0to4Q6sfaw-157" vertex="1">
          <mxGeometry relative="1" as="geometry" />
        </mxCell>
        <mxCell id="g6MJSV2zIn0to4Q6sfaw-160" value="1" style="text;resizable=0;align=center;verticalAlign=middle;fontFamily=Helvetica;container=0;fontSize=15;" parent="g6MJSV2zIn0to4Q6sfaw-157" vertex="1">
          <mxGeometry x="-0.77418938062702" relative="1" as="geometry">
            <mxPoint x="-3" y="-12" as="offset" />
          </mxGeometry>
        </mxCell>
        <mxCell id="A6hxOELhmEAThyasm0-c-37" value="*" style="edgeLabel;html=1;align=center;verticalAlign=middle;resizable=0;points=[];fontSize=23;fontFamily=Helvetica;fontColor=default;labelBackgroundColor=none;" parent="g6MJSV2zIn0to4Q6sfaw-157" vertex="1" connectable="0">
          <mxGeometry x="0.9078" y="-1" relative="1" as="geometry">
            <mxPoint x="-5" y="-5" as="offset" />
          </mxGeometry>
        </mxCell>
        <mxCell id="g6MJSV2zIn0to4Q6sfaw-40" value="accepted" style="part=1;resizeHeight=0;strokeColor=none;align=center;verticalAlign=top;spacingLeft=4;spacingRight=4;overflow=hidden;rotatable=0;points=[[0,0.5],[1,0.5]];portConstraint=eastwest;whiteSpace=wrap;#FFFFFFwhiteSpace=wrap;fillColor=none;strokeOpacity=100;fontFamily=Helvetica;container=0;" parent="WIyWlLk6GJQsqaUBKTNV-1" vertex="1">
          <mxGeometry x="62.78000000000003" y="1125.27" width="175.54" as="geometry" />
        </mxCell>
        <mxCell id="g6MJSV2zIn0to4Q6sfaw-41" value="adding_date" style="part=1;resizeHeight=0;strokeColor=none;align=center;verticalAlign=top;spacingLeft=4;spacingRight=4;overflow=hidden;rotatable=0;points=[[0,0.5],[1,0.5]];portConstraint=eastwest;whiteSpace=wrap;#FFFFFFwhiteSpace=wrap;fillColor=#000000;opacity=5;fontFamily=Helvetica;container=0;" parent="WIyWlLk6GJQsqaUBKTNV-1" vertex="1">
          <mxGeometry x="62.78000000000003" y="1125.27" width="175.54" as="geometry" />
        </mxCell>
        <mxCell id="g6MJSV2zIn0to4Q6sfaw-42" value="updating_date" style="part=1;resizeHeight=0;strokeColor=none;align=center;verticalAlign=top;spacingLeft=4;spacingRight=4;overflow=hidden;rotatable=0;points=[[0,0.5],[1,0.5]];portConstraint=eastwest;whiteSpace=wrap;#FFFFFFwhiteSpace=wrap;fillColor=none;strokeOpacity=100;fontFamily=Helvetica;container=0;" parent="WIyWlLk6GJQsqaUBKTNV-1" vertex="1">
          <mxGeometry x="62.78000000000003" y="1125.27" width="175.54" as="geometry" />
        </mxCell>
        <mxCell id="g6MJSV2zIn0to4Q6sfaw-43" value="description" style="part=1;resizeHeight=0;strokeColor=none;align=center;verticalAlign=top;spacingLeft=4;spacingRight=4;overflow=hidden;rotatable=0;points=[[0,0.5],[1,0.5]];portConstraint=eastwest;whiteSpace=wrap;#FFFFFFwhiteSpace=wrap;fillColor=#000000;opacity=5;fontFamily=Helvetica;container=0;" parent="WIyWlLk6GJQsqaUBKTNV-1" vertex="1">
          <mxGeometry x="62.78000000000003" y="1125.27" width="175.54" as="geometry" />
        </mxCell>
        <mxCell id="g6MJSV2zIn0to4Q6sfaw-44" value="FK space_type_id" style="part=1;resizeHeight=0;strokeColor=none;align=center;verticalAlign=top;spacingLeft=4;spacingRight=4;overflow=hidden;rotatable=0;points=[[0,0.5],[1,0.5]];portConstraint=eastwest;whiteSpace=wrap;#FFFFFFwhiteSpace=wrap;fillColor=none;strokeOpacity=100;fontFamily=Helvetica;container=0;" parent="WIyWlLk6GJQsqaUBKTNV-1" vertex="1">
          <mxGeometry x="62.78000000000003" y="1125.27" width="175.54" as="geometry" />
        </mxCell>
        <mxCell id="g6MJSV2zIn0to4Q6sfaw-73" value="phone_number" style="part=1;resizeHeight=0;strokeColor=none;align=center;verticalAlign=top;spacingLeft=4;spacingRight=4;overflow=hidden;rotatable=0;points=[[0,0.5],[1,0.5]];portConstraint=eastwest;whiteSpace=wrap;#FFFFFFwhiteSpace=wrap;fillColor=none;strokeOpacity=100;fontFamily=Helvetica;container=0;" parent="WIyWlLk6GJQsqaUBKTNV-1" vertex="1">
          <mxGeometry x="424.46190743338" y="1446.0010505836576" width="175.53997194950912" as="geometry" />
        </mxCell>
        <mxCell id="g6MJSV2zIn0to4Q6sfaw-74" value="birthday" style="part=1;resizeHeight=0;strokeColor=none;align=center;verticalAlign=top;spacingLeft=4;spacingRight=4;overflow=hidden;rotatable=0;points=[[0,0.5],[1,0.5]];portConstraint=eastwest;whiteSpace=wrap;#FFFFFFwhiteSpace=wrap;fillColor=#000000;opacity=5;fontFamily=Helvetica;container=0;" parent="WIyWlLk6GJQsqaUBKTNV-1" vertex="1">
          <mxGeometry x="424.46190743338" y="1446.0010505836576" width="175.53997194950912" as="geometry" />
        </mxCell>
        <mxCell id="g6MJSV2zIn0to4Q6sfaw-75" value="reg_date" style="part=1;resizeHeight=0;strokeColor=none;align=center;verticalAlign=top;spacingLeft=4;spacingRight=4;overflow=hidden;rotatable=0;points=[[0,0.5],[1,0.5]];portConstraint=eastwest;whiteSpace=wrap;#FFFFFFwhiteSpace=wrap;fillColor=none;strokeOpacity=100;fontFamily=Helvetica;container=0;" parent="WIyWlLk6GJQsqaUBKTNV-1" vertex="1">
          <mxGeometry x="424.46190743338" y="1446.0010505836576" width="175.53997194950912" as="geometry" />
        </mxCell>
        <mxCell id="g6MJSV2zIn0to4Q6sfaw-76" value="FK role_id" style="part=1;resizeHeight=0;strokeColor=none;align=center;verticalAlign=top;spacingLeft=4;spacingRight=4;overflow=hidden;rotatable=0;points=[[0,0.5],[1,0.5]];portConstraint=eastwest;whiteSpace=wrap;#FFFFFFwhiteSpace=wrap;fillColor=#000000;opacity=5;fontFamily=Helvetica;container=0;" parent="WIyWlLk6GJQsqaUBKTNV-1" vertex="1">
          <mxGeometry x="424.46190743338" y="1446.0010505836576" width="175.53997194950912" as="geometry" />
        </mxCell>
        <mxCell id="g6MJSV2zIn0to4Q6sfaw-88" value="upload_date" style="part=1;resizeHeight=0;strokeColor=none;align=center;verticalAlign=top;spacingLeft=4;spacingRight=4;overflow=hidden;rotatable=0;points=[[0,0.5],[1,0.5]];portConstraint=eastwest;whiteSpace=wrap;#FFFFFFwhiteSpace=wrap;fillColor=none;strokeOpacity=100;fontFamily=Helvetica;container=0;" parent="WIyWlLk6GJQsqaUBKTNV-1" vertex="1">
          <mxGeometry x="430.0019074333801" y="1153.0015175097276" width="176.71809256661993" as="geometry" />
        </mxCell>
        <mxCell id="g6MJSV2zIn0to4Q6sfaw-89" value="FK spot_id" style="part=1;resizeHeight=0;strokeColor=none;align=center;verticalAlign=top;spacingLeft=4;spacingRight=4;overflow=hidden;rotatable=0;points=[[0,0.5],[1,0.5]];portConstraint=eastwest;whiteSpace=wrap;#FFFFFFwhiteSpace=wrap;fillColor=#000000;opacity=5;fontFamily=Helvetica;container=0;" parent="WIyWlLk6GJQsqaUBKTNV-1" vertex="1">
          <mxGeometry x="430.0019074333801" y="1153.0015175097276" width="176.71809256661993" as="geometry" />
        </mxCell>
        <mxCell id="A6hxOELhmEAThyasm0-c-39" value="country" style="overflow=block;blockSpacing=1;swimlane;childLayout=stackLayout;horizontal=1;horizontalStack=0;resizeParent=1;resizeParentMax=0;resizeLast=0;collapsible=0;marginBottom=0;swimlaneFillColor=#ffffff;startSize=30;whiteSpace=wrap;align=center;spacing=0;strokeOpacity=100;strokeWidth=0.8;fontFamily=Helvetica;container=0;verticalAlign=middle;fillColor=#ffe6cc;strokeColor=#d79b00;" parent="WIyWlLk6GJQsqaUBKTNV-1" vertex="1">
          <mxGeometry x="-450.00000000000006" y="1730" width="175.54" height="102" as="geometry" />
        </mxCell>
        <mxCell id="A6hxOELhmEAThyasm0-c-40" value="PK id" style="part=1;resizeHeight=0;strokeColor=none;align=left;verticalAlign=middle;spacingLeft=4;spacingRight=4;overflow=hidden;rotatable=0;points=[[0,0.5],[1,0.5]];portConstraint=eastwest;whiteSpace=wrap;#FFFFFFwhiteSpace=wrap;fillColor=none;strokeOpacity=100;fontFamily=Helvetica;fontStyle=1" parent="A6hxOELhmEAThyasm0-c-39" vertex="1">
          <mxGeometry y="30" width="175.54" height="24" as="geometry" />
        </mxCell>
        <mxCell id="A6hxOELhmEAThyasm0-c-41" value="name" style="part=1;resizeHeight=0;align=left;verticalAlign=middle;spacingLeft=4;spacingRight=4;rotatable=0;points=[[0,0.5],[1,0.5]];portConstraint=eastwest;whiteSpace=wrap;#FFFFFFwhiteSpace=wrap;overflow=block;blockSpacing=1;opacity=5;fontFamily=Helvetica;" parent="A6hxOELhmEAThyasm0-c-39" vertex="1">
          <mxGeometry y="54" width="175.54" height="24" as="geometry" />
        </mxCell>
        <mxCell id="A6hxOELhmEAThyasm0-c-42" value="crt_date" style="part=1;resizeHeight=0;strokeColor=none;align=left;verticalAlign=middle;spacingLeft=4;spacingRight=4;overflow=hidden;rotatable=0;points=[[0,0.5],[1,0.5]];portConstraint=eastwest;whiteSpace=wrap;#FFFFFFwhiteSpace=wrap;fillColor=none;strokeOpacity=100;fontFamily=Helvetica;" parent="A6hxOELhmEAThyasm0-c-39" vertex="1">
          <mxGeometry y="78" width="175.54" height="24" as="geometry" />
        </mxCell>
        <mxCell id="A6hxOELhmEAThyasm0-c-45" value="region" style="overflow=block;blockSpacing=1;swimlane;childLayout=stackLayout;horizontal=1;horizontalStack=0;resizeParent=1;resizeParentMax=0;resizeLast=0;collapsible=0;marginBottom=0;swimlaneFillColor=#ffffff;startSize=30;whiteSpace=wrap;align=center;spacing=0;strokeOpacity=100;strokeWidth=0.8;fontFamily=Helvetica;container=0;verticalAlign=middle;fillColor=#ffe6cc;strokeColor=#d79b00;" parent="WIyWlLk6GJQsqaUBKTNV-1" vertex="1">
          <mxGeometry x="-450" y="1530" width="175.54" height="126" as="geometry" />
        </mxCell>
        <mxCell id="A6hxOELhmEAThyasm0-c-46" value="PK id" style="part=1;resizeHeight=0;strokeColor=none;align=left;verticalAlign=middle;spacingLeft=4;spacingRight=4;overflow=hidden;rotatable=0;points=[[0,0.5],[1,0.5]];portConstraint=eastwest;whiteSpace=wrap;#FFFFFFwhiteSpace=wrap;fillColor=none;strokeOpacity=100;fontFamily=Helvetica;fontStyle=1" parent="A6hxOELhmEAThyasm0-c-45" vertex="1">
          <mxGeometry y="30" width="175.54" height="24" as="geometry" />
        </mxCell>
        <mxCell id="A6hxOELhmEAThyasm0-c-47" value="name" style="part=1;resizeHeight=0;align=left;verticalAlign=middle;spacingLeft=4;spacingRight=4;rotatable=0;points=[[0,0.5],[1,0.5]];portConstraint=eastwest;whiteSpace=wrap;#FFFFFFwhiteSpace=wrap;overflow=block;blockSpacing=1;opacity=5;fontFamily=Helvetica;" parent="A6hxOELhmEAThyasm0-c-45" vertex="1">
          <mxGeometry y="54" width="175.54" height="24" as="geometry" />
        </mxCell>
        <mxCell id="A6hxOELhmEAThyasm0-c-48" value="crt_date" style="part=1;resizeHeight=0;strokeColor=none;align=left;verticalAlign=middle;spacingLeft=4;spacingRight=4;overflow=hidden;rotatable=0;points=[[0,0.5],[1,0.5]];portConstraint=eastwest;whiteSpace=wrap;#FFFFFFwhiteSpace=wrap;fillColor=none;strokeOpacity=100;fontFamily=Helvetica;" parent="A6hxOELhmEAThyasm0-c-45" vertex="1">
          <mxGeometry y="78" width="175.54" height="24" as="geometry" />
        </mxCell>
        <mxCell id="A6hxOELhmEAThyasm0-c-49" value="FK country_id" style="part=1;resizeHeight=0;strokeColor=none;align=left;verticalAlign=middle;spacingLeft=4;spacingRight=4;overflow=hidden;rotatable=0;points=[[0,0.5],[1,0.5]];portConstraint=eastwest;whiteSpace=wrap;#FFFFFFwhiteSpace=wrap;fillColor=none;strokeOpacity=100;fontFamily=Helvetica;fontStyle=1" parent="A6hxOELhmEAThyasm0-c-45" vertex="1">
          <mxGeometry y="102" width="175.54" height="24" as="geometry" />
        </mxCell>
        <mxCell id="A6hxOELhmEAThyasm0-c-51" value="city" style="overflow=block;blockSpacing=1;swimlane;childLayout=stackLayout;horizontal=1;horizontalStack=0;resizeParent=1;resizeParentMax=0;resizeLast=0;collapsible=0;marginBottom=0;swimlaneFillColor=#ffffff;startSize=30;whiteSpace=wrap;align=center;spacing=0;strokeOpacity=100;strokeWidth=0.8;fontFamily=Helvetica;container=0;verticalAlign=middle;fillColor=#ffe6cc;strokeColor=#d79b00;" parent="WIyWlLk6GJQsqaUBKTNV-1" vertex="1">
          <mxGeometry x="-360" y="1264" width="175.54" height="126" as="geometry" />
        </mxCell>
        <mxCell id="A6hxOELhmEAThyasm0-c-52" value="PK id" style="part=1;resizeHeight=0;strokeColor=none;align=left;verticalAlign=middle;spacingLeft=4;spacingRight=4;overflow=hidden;rotatable=0;points=[[0,0.5],[1,0.5]];portConstraint=eastwest;whiteSpace=wrap;#FFFFFFwhiteSpace=wrap;fillColor=none;strokeOpacity=100;fontFamily=Helvetica;fontStyle=1" parent="A6hxOELhmEAThyasm0-c-51" vertex="1">
          <mxGeometry y="30" width="175.54" height="24" as="geometry" />
        </mxCell>
        <mxCell id="A6hxOELhmEAThyasm0-c-53" value="name" style="part=1;resizeHeight=0;align=left;verticalAlign=middle;spacingLeft=4;spacingRight=4;rotatable=0;points=[[0,0.5],[1,0.5]];portConstraint=eastwest;whiteSpace=wrap;#FFFFFFwhiteSpace=wrap;overflow=block;blockSpacing=1;opacity=5;fontFamily=Helvetica;" parent="A6hxOELhmEAThyasm0-c-51" vertex="1">
          <mxGeometry y="54" width="175.54" height="24" as="geometry" />
        </mxCell>
        <mxCell id="A6hxOELhmEAThyasm0-c-54" value="crt_date" style="part=1;resizeHeight=0;strokeColor=none;align=left;verticalAlign=middle;spacingLeft=4;spacingRight=4;overflow=hidden;rotatable=0;points=[[0,0.5],[1,0.5]];portConstraint=eastwest;whiteSpace=wrap;#FFFFFFwhiteSpace=wrap;fillColor=none;strokeOpacity=100;fontFamily=Helvetica;" parent="A6hxOELhmEAThyasm0-c-51" vertex="1">
          <mxGeometry y="78" width="175.54" height="24" as="geometry" />
        </mxCell>
        <mxCell id="A6hxOELhmEAThyasm0-c-55" value="FK region_id" style="part=1;resizeHeight=0;strokeColor=none;align=left;verticalAlign=middle;spacingLeft=4;spacingRight=4;overflow=hidden;rotatable=0;points=[[0,0.5],[1,0.5]];portConstraint=eastwest;whiteSpace=wrap;#FFFFFFwhiteSpace=wrap;fillColor=none;strokeOpacity=100;fontFamily=Helvetica;fontStyle=1" parent="A6hxOELhmEAThyasm0-c-51" vertex="1">
          <mxGeometry y="102" width="175.54" height="24" as="geometry" />
        </mxCell>
        <mxCell id="A6hxOELhmEAThyasm0-c-56" value="" style="endArrow=blockThin;shadow=0;strokeWidth=1;rounded=0;endFill=1;edgeStyle=elbowEdgeStyle;elbow=vertical;startArrow=blockThin;startFill=1;align=center;fontFamily=Helvetica;" parent="WIyWlLk6GJQsqaUBKTNV-1" source="A6hxOELhmEAThyasm0-c-39" target="A6hxOELhmEAThyasm0-c-45" edge="1">
          <mxGeometry x="0.5" y="41" relative="1" as="geometry">
            <mxPoint x="-344" y="1456.5" as="sourcePoint" />
            <mxPoint x="-482" y="1456.5" as="targetPoint" />
            <mxPoint x="-40" y="32" as="offset" />
          </mxGeometry>
        </mxCell>
        <mxCell id="A6hxOELhmEAThyasm0-c-57" value="1" style="edgeLabel;align=center;verticalAlign=middle;resizable=0;points=[];fontFamily=Helvetica;fontSize=15;labelBackgroundColor=none;" parent="A6hxOELhmEAThyasm0-c-56" vertex="1" connectable="0">
          <mxGeometry x="-0.763" y="1" relative="1" as="geometry">
            <mxPoint x="8" y="-6" as="offset" />
          </mxGeometry>
        </mxCell>
        <mxCell id="A6hxOELhmEAThyasm0-c-58" value="*" style="edgeLabel;align=center;verticalAlign=middle;resizable=0;points=[];fontFamily=Helvetica;fontSize=23;labelBackgroundColor=none;" parent="A6hxOELhmEAThyasm0-c-56" vertex="1" connectable="0">
          <mxGeometry x="0.737" y="1" relative="1" as="geometry">
            <mxPoint x="9" y="2" as="offset" />
          </mxGeometry>
        </mxCell>
        <mxCell id="A6hxOELhmEAThyasm0-c-59" value="" style="endArrow=blockThin;shadow=0;strokeWidth=1;rounded=0;endFill=1;edgeStyle=elbowEdgeStyle;elbow=vertical;startArrow=blockThin;startFill=1;align=center;fontFamily=Helvetica;" parent="WIyWlLk6GJQsqaUBKTNV-1" source="A6hxOELhmEAThyasm0-c-45" target="A6hxOELhmEAThyasm0-c-51" edge="1">
          <mxGeometry x="0.5" y="41" relative="1" as="geometry">
            <mxPoint x="-393.38000000000005" y="1520" as="sourcePoint" />
            <mxPoint x="-288.92" y="1390" as="targetPoint" />
            <mxPoint x="-40" y="32" as="offset" />
          </mxGeometry>
        </mxCell>
        <mxCell id="A6hxOELhmEAThyasm0-c-60" value="1" style="edgeLabel;align=center;verticalAlign=middle;resizable=0;points=[];fontFamily=Helvetica;fontSize=15;labelBackgroundColor=none;" parent="A6hxOELhmEAThyasm0-c-59" vertex="1" connectable="0">
          <mxGeometry x="-0.763" y="1" relative="1" as="geometry">
            <mxPoint x="9" y="5" as="offset" />
          </mxGeometry>
        </mxCell>
        <mxCell id="A6hxOELhmEAThyasm0-c-61" value="*" style="edgeLabel;align=center;verticalAlign=middle;resizable=0;points=[];fontFamily=Helvetica;fontSize=23;labelBackgroundColor=none;" parent="A6hxOELhmEAThyasm0-c-59" vertex="1" connectable="0">
          <mxGeometry x="0.737" y="1" relative="1" as="geometry">
            <mxPoint x="-8" y="-11" as="offset" />
          </mxGeometry>
        </mxCell>
        <mxCell id="A6hxOELhmEAThyasm0-c-63" value="" style="endArrow=blockThin;shadow=0;strokeWidth=1;rounded=0;endFill=1;edgeStyle=elbowEdgeStyle;elbow=vertical;startArrow=blockThin;startFill=1;align=center;fontFamily=Helvetica;" parent="WIyWlLk6GJQsqaUBKTNV-1" source="A6hxOELhmEAThyasm0-c-51" target="g6MJSV2zIn0to4Q6sfaw-35" edge="1">
          <mxGeometry x="0.5" y="41" relative="1" as="geometry">
            <mxPoint x="-367" y="1530" as="sourcePoint" />
            <mxPoint x="-292" y="1400" as="targetPoint" />
            <mxPoint x="-40" y="32" as="offset" />
            <Array as="points">
              <mxPoint x="-60" y="1290" />
            </Array>
          </mxGeometry>
        </mxCell>
        <mxCell id="A6hxOELhmEAThyasm0-c-64" value="1" style="edgeLabel;align=center;verticalAlign=middle;resizable=0;points=[];fontFamily=Helvetica;fontSize=15;labelBackgroundColor=none;" parent="A6hxOELhmEAThyasm0-c-63" vertex="1" connectable="0">
          <mxGeometry x="-0.763" y="1" relative="1" as="geometry">
            <mxPoint x="-21" y="-12" as="offset" />
          </mxGeometry>
        </mxCell>
        <mxCell id="A6hxOELhmEAThyasm0-c-65" value="*" style="edgeLabel;align=center;verticalAlign=middle;resizable=0;points=[];fontFamily=Helvetica;fontSize=23;labelBackgroundColor=none;" parent="A6hxOELhmEAThyasm0-c-63" vertex="1" connectable="0">
          <mxGeometry x="0.737" y="1" relative="1" as="geometry">
            <mxPoint x="27" y="-8" as="offset" />
          </mxGeometry>
        </mxCell>
        <mxCell id="A6hxOELhmEAThyasm0-c-66" value="" style="endArrow=blockThin;shadow=0;strokeWidth=1;rounded=0;endFill=1;edgeStyle=elbowEdgeStyle;elbow=vertical;startArrow=blockThin;startFill=1;align=center;fontFamily=Helvetica;" parent="WIyWlLk6GJQsqaUBKTNV-1" edge="1" target="g6MJSV2zIn0to4Q6sfaw-68">
          <mxGeometry x="0.5" y="41" relative="1" as="geometry">
            <mxPoint x="-259.9999999999998" y="1390" as="sourcePoint" />
            <mxPoint x="544.46" y="1778.001050583658" as="targetPoint" />
            <mxPoint x="-40" y="32" as="offset" />
            <Array as="points">
              <mxPoint x="150" y="1810" />
            </Array>
          </mxGeometry>
        </mxCell>
        <mxCell id="A6hxOELhmEAThyasm0-c-67" value="1" style="edgeLabel;align=center;verticalAlign=middle;resizable=0;points=[];fontFamily=Helvetica;fontSize=15;labelBackgroundColor=none;" parent="A6hxOELhmEAThyasm0-c-66" vertex="1" connectable="0">
          <mxGeometry x="-0.763" y="1" relative="1" as="geometry">
            <mxPoint x="7" y="-128" as="offset" />
          </mxGeometry>
        </mxCell>
        <mxCell id="A6hxOELhmEAThyasm0-c-68" value="*" style="edgeLabel;align=center;verticalAlign=middle;resizable=0;points=[];fontFamily=Helvetica;fontSize=23;labelBackgroundColor=none;" parent="A6hxOELhmEAThyasm0-c-66" vertex="1" connectable="0">
          <mxGeometry x="0.737" y="1" relative="1" as="geometry">
            <mxPoint x="113" y="-39" as="offset" />
          </mxGeometry>
        </mxCell>
        <mxCell id="r9lJz0LnYFbDQjaUFzBp-5" value="" style="jettySize=18;whiteSpace=wrap;strokeColor=#333333;strokeOpacity=100;strokeWidth=0.8;rounded=1;arcSize=24;edgeStyle=orthogonalEdgeStyle;startArrow=block;startFill=1;endArrow=block;endFill=1;lucidId=IBX2~wCdSe7p;align=center;fontFamily=Helvetica;" edge="1" parent="WIyWlLk6GJQsqaUBKTNV-1" source="g6MJSV2zIn0to4Q6sfaw-68" target="g6MJSV2zIn0to4Q6sfaw-35">
          <mxGeometry width="100" height="100" relative="1" as="geometry">
            <Array as="points">
              <mxPoint x="360" y="1530" />
              <mxPoint x="360" y="1370" />
            </Array>
            <mxPoint x="391" y="1564" as="sourcePoint" />
            <mxPoint x="286" y="1424" as="targetPoint" />
          </mxGeometry>
        </mxCell>
        <mxCell id="r9lJz0LnYFbDQjaUFzBp-6" value=" " style="text;resizable=0;align=center;verticalAlign=middle;fontFamily=Helvetica;container=0;" vertex="1" parent="r9lJz0LnYFbDQjaUFzBp-5">
          <mxGeometry x="0.5683942889964346" relative="1" as="geometry" />
        </mxCell>
        <mxCell id="r9lJz0LnYFbDQjaUFzBp-7" value="1" style="text;resizable=0;align=center;verticalAlign=middle;fontFamily=Helvetica;container=0;" vertex="1" parent="r9lJz0LnYFbDQjaUFzBp-5">
          <mxGeometry x="-0.864213943890782" relative="1" as="geometry">
            <mxPoint x="5" y="-11" as="offset" />
          </mxGeometry>
        </mxCell>
        <mxCell id="r9lJz0LnYFbDQjaUFzBp-8" value="*" style="edgeLabel;html=1;align=center;verticalAlign=middle;resizable=0;points=[];labelBackgroundColor=none;fontSize=23;" vertex="1" connectable="0" parent="r9lJz0LnYFbDQjaUFzBp-5">
          <mxGeometry x="0.8571" y="-4" relative="1" as="geometry">
            <mxPoint x="-3" as="offset" />
          </mxGeometry>
        </mxCell>
      </root>
    </mxGraphModel>
  </diagram>
</mxfile>
